<mxfile host="app.diagrams.net" agent="Mozilla/5.0 (Macintosh; Intel Mac OS X 10_15_7) AppleWebKit/537.36 (KHTML, like Gecko) Chrome/127.0.0.0 Safari/537.36 OPR/113.0.0.0" version="24.8.6">
  <diagram id="6a731a19-8d31-9384-78a2-239565b7b9f0" name="Page-1">
    <mxGraphModel dx="2823" dy="1772" grid="1" gridSize="10" guides="1" tooltips="1" connect="1" arrows="1" fold="1" page="1" pageScale="1" pageWidth="827" pageHeight="1169" background="none" math="0" shadow="0">
      <root>
        <mxCell id="0" />
        <mxCell id="1" parent="0" />
        <mxCell id="KSiQGRY_vgNifgsWzwuc-55" value="" style="shape=image;verticalLabelPosition=bottom;labelBackgroundColor=default;verticalAlign=top;aspect=fixed;imageAspect=0;image=data:image/jpeg,/9j/4AAQSkZJRgABAQAAAQABAAD/2wCEAAUFBQUFBQUGBgUICAcICAsKCQkKCxEMDQwNDBEaEBMQEBMQGhcbFhUWGxcpIBwcICkvJyUnLzkzMzlHREddXX0BBQUFBQUFBQYGBQgIBwgICwoJCQoLEQwNDA0MERoQExAQExAaFxsWFRYbFykgHBwgKS8nJScvOTMzOUdER11dff/CABEIAaACYgMBIQACEQEDEQH/xAAcAAEAAgMBAQEAAAAAAAAAAAAABQYBAgQDBwj/2gAIAQEAAAAA/TMiAARcoAAAAAAAAAG/RLAAEDPAAAAAAAAABXeyWKzxgSc+QE7ljLLGM5GjdqZzgxnIAAAAK72SyjWeSAhIu3q/RLLV5rsl4frjN/Lpn4Hz2hu+zfN7VKRTp8+OU5rzkAAAAK72SyjXkApF3QNC5fflmpSAsNQ7O/ltNU47ZGQtlqff76dcbLR59ZyAAAAFd7JZQb8A8KbeUDOBkzqxkzgPH02ZGQAAAAV3slnjT/YDyumUFOgAAAAAAAABXYKYAAIGeAAAAAAAAAGPbawAAEFOgAAAAAAAABXeyWKtoBMyZBToAAAAAAAAAV3slii3ECoXggI+21mX7m2tZs6L9kFaqvacsa5ba8faDG2sZJ12e9dgAAV3sliqWsCmXMgPj8Y8pq00utWjy95Sp2qnSUdO/QPm3dJ8sF7Stb5vtfyDb6b8+cnZB9Pp4fpXrAABXeyWKpawKZcyCmdmucsGcZa5ZzV7Nip27GdPTU21ZMM5yAACu9ksU/oA6p4gp0AAAwyAAAAACu+M+AAQc4AAAAAAAAAMwvHPAAEFOgAAAAAAAADEd2SwABBToAAAAAAAAAV3slgVTjs8gCC9ZiN6ugAIyTDn8u2LlPHn7uXfHQAAAAV3sljzpnlapKqcUvYRAfNeri95ySqHheaXKx8VJ3X5z9ApEzw6dlb+i0uWnqDPuCI+iXkAAABXeyWPktvtY5fm9ptJAVvOmvTNVvSepNy5ubslIOb4dOHl6fGyQfTI17r6Y73nrCAAAArvZLCLreZeG97jkQU6AAAAAAAAAFd7JYHnCT4EFOgAAAAAAAABXYOcAAICfAAAAAAAAAGm/ZLAAEDPAAAAAAAAABXeyWAAK/PbYzjLDLDDLDYAAAAAAV3slgB5eogKLY6tYPWfiOv53aO6K7J/5vdbD8A+mZlLH2AAAAAAV3sliscYPzH+sp0r9I4tuewd1csVR9vLvjr5Qp27fL9Jbus9iAAAAAArvZLAAEBOhkPHToZMZw2AAAAAAV3slgACBngAAAAAAAAArsXOAAEBPgAAAAAAAADz8+yWAAIKdAAAAAAAAAGK92SxUeUCemiCnQAAAAAAAAArvZLFHvAFMuZAw9wrEx3bsecBZNc65RExhFQFl7tqtZ9sZ2xp6a6tt9gAAFd7JYo94AplzID4tH+3NO2qjyU9RfeWqO0lFWKS35FemeDg6Z21/HLfeaXXJjr4OeS+5yQAACu9ksUO+EPBeXUuBBToAAAAwguySAAAAK72SxW4zTaVsYEFOgAAAAAAAABXeyWAAIKdAAAAAAAAACuwcsAA2g5oAAAAAAAAAPXtlhXYnE1PgQU6AAAAAAAAAFd7JYU63oupXnqCCleji6fQAAAAAAAACu9ksKrahSbsEB8zkYrvlpan6Sk1Dxfr78V1uIAAAAAAFd7JYVO2MUG2yQQFda+XbL1rCxR0X4Ses9ZQAAAAAAK72Swq0Ztm49AIKdAAAAAAAAACu9ksAAQM8AAAAAAAAAMV6OnAAGID1lo7q6PTPiHLwzerXO2N8667c2fXdnRlzdCPkPXVtphr6MZ113xlzdksNaN6Zl58Ff8Am3ZH9cxNa07N15PeIoX0OC7IzTk7er6185ieF3bb2iGvHziMl6vcLB88neT1v9K8Yznkfq/y+IvnpRejfX69AdksKBe/RTLP2BAVtpp1znPSZi3ccnCxW3TtSrLy+2v0elZiJjiaWOOsHzKwd0ZNSNc29uK6/M7Rz+HVdaXEz/bF83p63OA65YU25ClXUIDjrsp7wVltNSxGWeM74bo6YSUk6rzyMj3R8jXvDv8Abk9ZvevyPrxxsnG9+/bwx0/48fv5cO7mlPK56wHZLCl3Q8qncQr9Grtq5uHf6HSoyPvNMu0FUbPE9Vkg+GzwForljoklIV7e0e8hQ+y006OlOvkkbVSuG6QfNpaqJNQ1viLL9AV3slhT5iYfOvoewV+eMnnuADIwAee8TMYxFSzLAAYy2V3slgrMYt/UCBngAAAAAAAAArsXIga7AxEy4AAAAAAAAA16v//EABcBAQEBAQAAAAAAAAAAAAAAAAABAgP/2gAIAQIQAAAAAAAAAAAAAAAAAALM6i5tzolAAABLEtzbM7Z0AAADOpDWLrIaAAAAyLrK5sNAAAAAAAAAAAAAAAAAAAAAAAAAAAAAASWKudSWay1m0AAGdRLZZLZNZ0zuAAAABKAAAAAAlAAAAAAAAAAAAAAAAAAAAAAAAAAAAAAJZWOuN87vOaoAAAQszuXNuVmgAAAAAAAAAAAAAAAAAAAAAAAAAAAAARZFsoAAAAZ3mstGdAAAADOpUXGlAAAACBGkUAAAAAAAAAAAAAAAAAAAAAAAAAAAAAAJKsLEqVNAAAY68y1vESblllAAAAAEoAAAAACUAAAAAAAAAAAAAAAAAAAAAAAAAAAAAJZZLbAAAAASyyVqAAAAAAAAAAAAAAAAAAZ1EtJZNETQligBLjW8KGc9uTdmdZ1z3nWdgCWTczbm2Z3JuSxc6hNAEWLFk1ctZWWLLnczoAyqBWsJuTUFzrGwASVCpSFWJVigAAAAAAAAAAAAD//EABcBAQEBAQAAAAAAAAAAAAAAAAABAgP/2gAIAQMQAAAAAAAAAAAAAAAAAAJLUVLFlAAABcqZ0memNSgAAAuNELl057gAAAEoktZ0lAAAAAAAAAAAAAAAAAAAAAAAAAAAAAAIsJpKCWUAAFy1GJrUubRbigAAAAAAAAAAAAAAAAAAAAAAAAAAAAAAAAAAAAAAAAA1hZqSbmG2dAAAAizULErOgAAAAAAAAAAAAAAAAAAAAAAAAAAAAAllBLnQAAABeernTOomgAAADXNrOmdZ1nQAAABCgigAAAAAAAAAAAAAAAAAAAAAAAAAAAAAAlSiZ2iooAAGsKk1Jc7Z1KlAAAAAFxoAAAAACUAAAAAAAAAAAAAAAAAAAAAAAAAAAAAEm4sAAAAAI1FgAAAAAAAAAAAAAAAAAAlSpUpFllJUoAXDWbLNJdc95LYWLAAuNM6C5WWXOkssUAETQFytksqWWagAJctLI1jTWJoJnU6ZzoASyksKM6BCooAAAAAAAAAAAAD/xAA+EAACAQMDAQUECQMDBAIDAAACAwEABBMRElQUBSE0UlMgIjNzEBUjMTJAUFFyJDBBQlWDNUNhdCVkRWJj/9oACAEBAAESAhhrG3P9QYwJxERhZzG1hZzG1hZzG1hZzG1hZzG1hZzG1hZzG1hZzG1hZzG1hZzG1hZzG1hZzG1hZzG1hZzG1hZzG0kHGpZzeN1kdaws5jaws5jaws5jaws5jaws5jaws5jaws5jaws5jaws5jaws5jaws5jaws5jaws5jaws5jaws5jaws5jaws5jaws5jaws5jaws5jaws5jaws5jaws5jaws5jaws5jaws5jaws5jaws5jaws5jaws5jaws5jaws5jaws5jaws5jaws5jaws5jaws5jaws5jaws5jaws5jaws5jaws5jaws5jaws5jaws5jaws5jaws5jaws5jaws5jaws5jaws5jaws5jaws5jaws5jaws5jaws5jaws5jaws5jawt5raRJGhBkXeQDM0j4t786PyFr4dP8AGP1y08LbfKCkfFvfnR7B3lsqZEnRu8v1haeY6+sLTzHX1haeY6+sLTzHX1haeY6+sLTzHX1hZ+c6VdW7p0W4Zn9vptvDp/jH65aeFtvlBSPi3vzo+l8m93TAUiMRuaSlKSGxYQI/2HIU8dDH7vum1YzViGzqxenvfRbeHT/GKyyq8vpkmEC0gexV8tpLjYQ715BkrjNc9nkEMgDk+9V0G1k/aTOaQ29aM/8AZZu3yG23uAuUi4PwlUXyiw+6UA2dAO6ZCxVrv72jGs34Dn1Uz7Eog5m5WF06CI42J3zTLwdjoJThmFb6G6HRYiJsLFB6Jct6QaE+6Ua0N8osPunAtnRZxfhIgWI+92Ku0HMRZ3DFxO6AnSlTC7nT+o3GqS2L7RWyLeYS3R2uykPF4SURMaFIzFzc5Cs5XDNvUwO875YbikSxiewmXVyNoknGJSMaUV+AZ9yjiVLyaDfCUxEJbuL8MDfKMBmILdJyGzr1SMTtKCkiHbHaSTACWBnJARbSuhhkhCyKYkYmivlBuLaeMT2Ez89aeFtvlBSPi3vzo+mz72X8/wCeo0/tH3doW2n+Us1+m28On+EUy1vCdelAq2uVCxobK51tYOF7AtySdLtbsehGcW23n8XQ3e0yiViyLmXLpqLtuCTlZaFqarK3Yi2ws2/eVKsnQu2QyRlaDiRK8U5wLhUBrDAKnWl4we0BgU/blEjTrN1w58nsEGW2KsV8ds1bSVJyuQil2tyk0tHHJYRUY29tCLaE66/frKrJ0BapZIytBRIlNldfhGV7eqzRN+l1xauUrZuONKxXfUpdsV7qiGYTa3gR2dEin7DXdVkh6YfDYD32kcVFjdgu2QMq2JbBCU2LZC4t9RwtOS17Y7uzn9/lptq98XLNF5DRiCOmuP6RsY8qgkCErB0bWqMc8OJtNReFKHCSswa6jdWb7gQEgTPdPvNsXsco/c3Bs2v6FuO4t9QwNZJa/nrTwtt8oKR8W9+dH0nPSXJMLuS7TcX9iZgYmZnSI/zbavad1/omNqvptvDp/jH5aYifvj9GtPC23ygpHxb350fTMQUTExrE10ePuRctVHl6e5/3BtdPc/7g2unuf9wbXT3P+4Nrp7n/AHBtdPc/7g2unuf9wbXRCWmZpu0/x9Nr4dP8Y/XLTwtt8oKFpg68gbVhxljvzt4Lqzt4Lqzt4Lqzt4Lqzt4Lqzt4Lqzt4Lqzt4Lqzt4Lqzt4Lqzt4Lqzt4Lqzt4Lqzt4Lqzt4Lqt3twJ/onfhis7eC6s7eC6s7eC6s7eC6s7eC6s7eC6s7eC6s7eC6s7eC6s7eC6s7eC6s7eC6s7eC6s7eC6s7eC6s7eC6s7eC6s7eC6s7eC6s7eC6s7eC6s7eC6s7eC6s7eC6s7eC6s7eC6s7eC6s7eC6s7eC6s7eC6s7eC6s7eC6s7eC6s7eC6s7eC6s7eC6s7eC6s7eC6s7eC6s7eC6s7eC6s7eC6s7eC6s7eC6s7eC6s7eC6s7eC6s7eC6s7eC6s7eC6s7eC6s7eC6s7eC6s7eC6s7eC6s7eC6s7eC6s7eC6s7eC6rTwtt8oKT8S8+d+QtfDp/jH65aeFtvlBSPi3vzo9ib2zGZibpUTFdfZctVdfZctVdfZctVdfZctVdfZctVdfZctVdfZctVLel2uJonp9/sWvh0/xj9ctPC23ygpHxb350exYiM2/wCGPiMrGPkisY+SKxj5IrGPkisY+SKxj5IrGPkirfuvL+I//n7Ft4dP8YoLndctRjmJCIKZpj5W63Xs+LMxqJTO7UJHSfZl+l0CNn4lyW76MoSw1xPvDETMBMkMTISM+UpmNNAme/Sru4m1TLdm7SY7qu3zbINuzdt/x/ZCZIYmQkZ/b+yxoJCTOdI+i6dNtbtdAbtg66ROsR+UtPC23ygpHxb350ex2d4f/kZ/YR4y/wD+L2Lbw6f4xTzVNx2tGQfCjSCEDssMjkOyKkTbb+yGajmKZyTDQWt3fqjriy0fSRgBfepjika7LKZ7PXoWsjvirZlsSgb7/UgsswwcrzTbSO4rLdEQVmu6SadO+1ZNdnyEXithDoy1107UlZHcxOkGFtuGQG3m+cZQGpWy53KAI7P7NvYCDJGmtXK1pXayUCBFdAZVdykkXxP29QD+6rs1S5xxIwS2p966JRo7Sl+zMLPcq5JTbh63PgJ92UT2gZghXfoOQMsuWgh7YBQDIYBmIJoTdPm3IZYVlqNdn9ObcqXRMyvQxcNtPaNzD9u2bYKBYOZ2eq6nUitSgot9jHDvdtugcWo2RWzsBFMxdjuh0DsKxtYE0zoTdAuDUaJ9zZIWcENPITsTmXbYkPxweJBxKgWEXEZpMLYYtNHwSyu+6ryOmsdqomADZFSiwai4iGia2bdkLZts7zuiLoCjqKIlLUbUNg7cmLzQ8LSBQ1Gkri7WW50INHa0RAzEXKyq/lH9Tj2jKhVtm7JTV9rZ9u8Y+xq/Ys4uZEo3LSuRIZ1iJj8naeFtvlBSPi3vzo9js7w//Iz+wjxl/wD8XsWvh0/xitI/atI/atIrT/xWkfTpH7VpH7VpH7V3VpH0d1aR+1aR+1aR+30rtyC4c7JE74iNukVpUW0xdlcb47wgNvd9OkftXd9GlaR+30aR+30930af+K0itI/KWnhbb5QUj4t786PYiyTGu0mx3zOnRr9W4ro1+rcV0a/VuK6Nfq3FdGv1biujX6txXRr9W4pNutEnI7tS++fptfDp/jH65aeFtvlBSpGG3msx8WK3h54reHnit4eeK3h54reHnit4eeK3h54reHnit4eeK3h54reHnit4eeK3h54reHnit4eeKtjHp0e9H4YreHnit4eeK3h54reHnit4eeK3h54reHnit4eeK3h54reHnit4eeK3h54reHnit4eeK3h54reHnit4eeK3h54reHnit4eeK3h54reHnit4eeK3h54reHnit4eeK3h54reHnit4eeK3h54reHnit4eeK3h54reHnit4eeK3h54reHnit4eeK3h54reHnit4eeK3h54reHnit4eeK3h54reHnit4eeK3h54reHnit4eeK3h54reHnit4eeK3h54reHnit4eeK3h54reHnit4eeKtPC23ygpSwJt5MgMzlisKfRGsKfRGsKfRGsKfRGsKfRGsKfRGsKfRGsKfRGsKfRGsKfRGsKfRGsKfRGsKfRGsKfRGsKfRGrZSunT9kP4YrCn0RrCn0RrCn0RrCn0RrCn0RrCn0RrCn0RrCn0RrCn0RrCn0RrCn0RrCn0RrCn0RrCn0RrCn0RrCn0RrCn0RrCn0RrCn0RrCn0RrCn0RrCn0RrCn0RrCn0RrCn0RrCn0RrCn0RrCn0RrCn0RrCn0RrCn0RrCn0RrCn0RrCn0RrCn0RrCn0RrCn0RrCn0RrCn0RrCn0RrCn0RrCn0RrCn0RrCn0RrCn0RrCn0RrCn0RrCn0RrCn0RrCn0RrCn0RrCn0RrCn0RrCn0RrCn0RrCn0RrCn0RrCn0RrEn0Qq08LbfKCkfFvfnR+QtfDp/jH65aeFtvlBSPi3vzo9tt4lZSHebPJ1bA0z2hgM/wCpbVuHctkFH7+1beGT/GKG4QR4xcEn5alqhYCyZG8vwjBCWuhROk6f3AcphGIMEpCdCj2SIRiSKdIj75WYNATWcEM/dNZlQ0VSyN8xrA1MwMTMzpFLYDQg1nBDP+akhgoGSjdP3QRQMTMzpEVBQURMTrrGv5y08LbfKCkfFvfnR7EzERMzPdXWwfdbKl3/AO3TPdp1L+701KUkdq1wMfQyzScyY6rZ5916jXcMPD903SHdwn7/APkPYtvDp/jFGRLvO0zDTcNsuYpd66MEu2yJ20tmt7nN7JaUjockW1V02Nw+5BldErU3XK9IYYd7JiJsnnc2gMLuOdYmk3rzDs8p2/asMDqLu82MPVfu3OLRDmS+6ScxOPbMSd1dxHaJar/p57o6prupw6DiAZoLx73IgJEQZbZaG4dcM7HZv25AOSHrmzbru40xy3bsunymFQP42sgBqGst3dpn+MtyYirY7ojdDl7RjTZMvbbl2mcnv2sARhlxcKaxOozOCWASbq7YVjEkv7dMnNRevlS53Du+1pN226wiOgTNuLSq0axdhYwJR3rKl3WtgF0cf9neUauO67LYZD70MnS3urtxW7MP2LInWWPPqhtlztnHLCK1e1dvaKEdxsJ0zSrm6MlIMYW7YZFWW4i6shaK9xLZupd6bAduIRYC9ZWu8wdWIqHulWyQe2LwrdmhRj3iX5q08LbfKCkfFvfnR7DbR+YmnHVLme5artDJgNdh+n7BGIDJGUDH7uMLzuVaZtPuZaJche1r5ZOusexbeHT/ABijsIJjz6hurR2lQWAASJzMnEEriB7OUEo+1ZtVOqx+rkytoEbJ3sya9Av7GcjN65mclvbhbLxhJSOszFR2amJV9ozRbJMB+rh2mPUu0JuSlW0Kc52UyJmmsLtDZcX2UWCthx3HaAbJOCIJIdp1NkOUWg0w0XjiA7PWsLYYYf2OuyRslCXdJbN+/G9AXAbC1+/WJ+r0z1GQjZmiIKre3i3iYyMOfMVmoyuN2si6PfGLMdpxLTIiDZvCwEJtpi4b9iEgFB2Ype2Yc3WN8aj2esITsawSWGyCDs1KoTAMZGyCHVVuCUQjvIIjbQdnrAkTlbMJ1ximxUhm4CZp98LbbC1gM3kDA1iD+rUYRXBtjaUkJs7PSyFe+wTX9zJs15Us3nGMZGIns5RAQMYxmobIn6vTObeRnlGBOl28KKSkyM9NN/5q08LbfKCkfFvfnR7LUqcO1q4OKwXCNenfqPp9aITA3K5TP7tuUJiJNsd/3Rku3fDViDzjZL1g2zLjj/V7Nr4dP8Y/XLTwtt8oKR8W9+dHtzSrW3RJSpABM/f/AGLXw6f4x+uWnhbb5QUKjJ15I3LA+1juwu5zqwu5zqwu5zqwu5zqwu5zqwu5zqwu5zqwu5zqwu5zqwu5zqwu5zqwu5zqwu5zqwu5zqwu5zqtkNwJ/rG/hisLuc6sLuc6sLuc6sLuc6sLuc6sLuc6sLuc6sLuc6sLuc6sLuc6sLuc6sLuc6sLuc6sLuc6sLuc6sLuc6sLuc6sLuc6sLuc6sLuc6sLuc6sLuc6sLuc6sLuc6sLuc6sLuc6sLuc6sLuc6sLuc6sLuc6sLuc6sLuc6sLuc6sLuc6sLuc6sLuc6sLuc6sLuc6sLuc6sLuc6sLuc6sLuc6sLuc6sLuc6sLuc6sLuc6sLuc6sLuc6sLuc6sLuc6sLuc6sLuc6sLuc6sLuc6sLuc6sLuc6sLuc6sLuc6sDec6rTwtt8oKR8W9+dH5C18On+Mfrlp4W2+UFI+Le/Oj8hbeHT/ABj9ctPC23ygpHxb350f29Y7419m28On+EVnNV3e72mSlKE9qr1TiCIE43ryDJXUtu7HZlhZSXeq7XINLVhfayERF8uR7lnv3yGNLwuFA0NdJpN6txwMCcbhkglz4DQIEyMonutbr+msMjW7mMmNQ7SQcnGxugkQyUXyvtYMSAw26gd5BgUDlBsHAbFXkYFkWpskiHal4PGZHWJGdpD2ldTCWQrJ7pDEm28WnJ7plAd7J3+5vGN3drFAxzPq65yOCWOiDGO0F7JLEyNHYZou0BFjVYG7x07m3Yqko2Ge2Nx0BiwRMZ1Eo1if0W08LbfKCkfFvfnR7DAvJOcdwsR/bH2hzFVj7Q5iqx9ocxVY+0OYqsfaHMVWPtDmKq9tO2GdrbkH72wdW2w3AqGLhgmz/M/TbeHT/CKZbXEuvygB0amFjUWb5m1goiBG2JRyu2uxjs8ZFf8AT/ino7raZBshg3UuCGLvG4JLZt3TvVYobb2sKLbBRuq3tLgHWzWCO4VkLCNDRvBuVxBRK8ZCFndQmyAhDVT5Oa6Fx298otsSx2QKKyuGJ1hKENEgIagrq8SlnuxGT3lrsXrlJwIblOYUDbolZ3DJ/E090w2zucF2gICYY3eMzbXAle7YDbcRS14EAsO/YMRFDaXUW/Zy9g6pZBFR2V1teIbJ3XUOirm3uWMh4QMOUX2VYHhcXDAEZh4RrFqiLa3UmJ12DEa/otp4W2+UFI+Le/Oj8hbeHT/GP7cxr3TFCIhEQI6RH+P0+08LbfKCkfFvfnR+QtfDp/jH65aeFtvlBSzMXXkQgy+1jvyN4jKyN4jKyN4jKyN4jKyN4jKyN4jKyN4jKyN4jKyN4jKyN4jKyN4jKyN4jKyN4jKyN4jKyN4jKtms6dP9Kf4YrI3iMrI3iMrI3iMrI3iMrI3iMrI3iMrI3iMrI3iMrI3iMrI3iMrI3iMrI3iMrI3iMrI3iMrI3iMrI3iMrI3iMrI3iMrI3iMrI3iMrI3iMrI3iMrI3iMrI3iMrI3iMrI3iMrI3iMrI3iMrI3iMrI3iMrI3iMrI3iMrI3iMrI3iMrI3iMrI3iMrI3iMrI3iMrI3iMrI3iMrI3iMrI3iMrI3iMrI3iMrI3iMrI3iMrI3iMrI3iMrI3iMrI3iMrI3iMrI3iMrI3iMrI3iMrI3iMrI3iMrI3iMrI3iMrMziMq08LbfKCkfFvfnR+QtfDp/jH65aeFtvlBSPi3vzo9hl9ZqMgO4ESj74+srDlhX1lYcsK+srDlhX1lYcsK+srDlhX1lYcsK+srDlhSbhFxEypsHp9/sWvh0/xj9ctPC23ygpHxb350exafG7S/9j+wjxl//wAXsW3h0/xiguTK7ciVRGwYLdTHyt9uvbEwyZjUCIt+4NuhaVr9Gta/+anuiatXzcIBpDt1mfo1j961itY/f6NaF6ycxMFqYREl9Gtax+9Z1Z4Tu+0kJLRtyxcJmUfjbATQmW44kNIj7p1j961jSrd5Om4iRiMbNv06x7Gsfv8ARrFax+9ax+/5e08LbfKCkfFvfnR7Fp8btL/2P7CPGX//ABexbeHT/GKe63m57WGWh4YY0QxYnYQgwyFZFSDt9/ZH3ZomYZQNWC2zGhIG+mWwwrWMGONFtcRQfZU69ngMT3jJxSPfDs/Z4sGxmq0KIvNAJbYmWe9ckA3yuo24MU7atyAU9nyfhhN0FWspDfMTNp1UzR9KubN6+5XUyW9hW3TN10iIv40p5Wv/AM5oQe6I7IOUPa0HOOCOQJMvO1EO1igw3w8NtO8R2nh0zHbBKqDCTUMt50CEnDq7MmN5jErZGMdHXcqW7tGC0jJaxtheHq7Ay00K0mIkXW42dto0NOurPaId2uR7JGDXO3W1WnXeo2saEsJZwMCJF9gN4eWtwwF3h+FF2BMoset8a2wFsQB7/Zpag73A+J+MjtgVflBhBRfBpLdpT2kDvil3oq9GZ7LuIbpJdPOtD08tUS5DHFsUPlAJC27MeOmOdsXBM3KB7F99p1CymnTbisGp3dMT9zCOErSvFcjoRmQU44228wIROAP6Vu2Z7TW/4xd6KVvxr3/i2xu/K2nhbb5QUj4t786PYs/jdpf+x7DXpT8VwBXX20/gk2VF24vw9nurLe8KKt1uh1yxgiOTbpH023h0fxj8/cJ6hLVSUxBxtmVjsAR110jTX83aeFtvlBSPi3vzo9hlpbNLeduEl5p7PR/pJw10P/3LmosE/wConFQWlsudQtwif39u18On+Mfrlp4W2+UFI+Le/Oj8ha+HT/GP1y08LbfKChtrdr7wmW6ynLHf0Vlw010Vlw010Vlw010Vlw010Vlw010Vlw010Vlw010Vlw010Vlw010Vlw010Vlw010Vlw010Vlw010Vlw010Vjw01b2VnKEzNonXbFdFZcNNdFZcNNdFZcNNdFZcNNdFZcNNdFZcNNdFZcNNdFZcNNdFZcNNdFZcNNdFZcNNdFZcNNdFZcNNdFZcNNdFZcNNdFZcNNdFZcNNdFZcNNdFZcNNdFZcNNdFZcNNdFZcNNdFZcNNdFZcNNdFZcNNdFZcNNdFZcNNdFZcNNdFZcNNdFZcNNdFZcNNdFZcNNdFZcNNdFZcNNdFZcNNdFZcNNdFZcNNdFZcNNdFZcNNdFZcNNdFZcNNdFZcNNdFZcNNdFZcNNdFZcNNdFZcNNdFZcNNdFZcNNdFZcNNdFZcNNdFZcNNdFZcNNdFZcNNdFZcNNdFZcNNdFZcNNdFZcNNdFZcNNdDZcNNWnhbb5Q0j4t786PZddW9vIw10DM/dX1p2fyRr6zsOUNBdWze4LhZT+3t2vh0/xj9ctPC23ygpHxb350ezP/AFAP/XL6WIS4drFCUUS22fvpkjTH4lAYMADEtRKNYn2bbw6P4xW4ZnTdGv0SYQQjJxBF90d36xaeFtvlBSPi3vzo9kv+oB/65ezYfBOP9MObA+1beHT/ABiinFe9psAR3DbAVLvm6ol0BtZby2t7nP7KcWzaclMQq6KIMcaxMrolxRPu1jEHC4mWSO60ed1aA3SBOdaTfXBh2eRbPtmGB11t3sYe1Wg3OLSbt4dSE49yyX71jcHcC3fEbgZIVF3cGYytWq8shMBfOMriNVwSwKZUq9f/AEJNENlwvWl3d2zGcJjGxclqu7vSQhp4RFsBpVk8rm3BhRoXfE/plp4W2+UFI+Le/Oj2f/yK/kF7B3MumVWs7i+4mKWCVgsPuGNPatvDp/jFHYwTLg87PtQ2TQ2ACSJzHOJcriAsADp9Ht0TPuRPZq5Bgy1nvNywXQjqk8rMgTM77a3G1VCxIpHWZoezljh0czRTJMI+ro2GPUt95uWj7OA2GyXt3SQFSLYbeW6GRZC3TQ2IA0jFrIEi3ytlnAAR72MMVmIVY2uiLMm75NatsCqwFIyIvbs0nYMWACFqMNZqj8BW1uNsvGJFMazP6ZaeFtvlBSPi3vzo9l9qDzE8jAKI016D/wC5dV0Ecy6r6vt9dTyNoREY0EYiP29q18On+Mfrlp4W2+UFI+Le/Oj8ha+HT/GP1y08LbfKClicuvNGbftY7tjuRWx3IrY7kVsdyK2O5FbHcitjuRWx3IrY7kVsdyK2O5FbHcitjuRWx3IrY7kVbA3Ar7b/AExUHuOQi8CS8uxvr1MyJiubqN5fhGIYWulxE6d1bHevWx3IrY7162N9etjvWrY7162O9atjvXot4RqVxpFJZD92K8E9PvrY3162N9atjvWrY71q2O9atjvXrY71q2O5FbHevWx3r1sd69bG+vUwwe+bjSK2tmNc9bHevWxvr1td69bHcitjvXrY3162N9etjfXqYYOmtxEd+kVsd69bG+vQzJGYRdjJD+KNjvXrY7162O5FbG+vWx3r1sb69bG+vW13r1sd69bHcitjuRWxvr1sb69bXevWxvr1tdyK2N9etjeRWxvr1aeFtvlBSPi3vzo9rqHXHhRjZr8aba5n7+0GVtvld4tF8fsi4B8FprBj3EHtW3h0/wAIoyJd52mYabhtlzS710YJdt2nbS2a3tc3slxSOjJItqrpkQQaLgyuiVqbrlURByvvZMRNi87m1Ww4iCnXWjcc3OBcxEwveUpvHs+rpnb9tJwUBfOkAjbqwnsXVqdwYFnXtKCmKY8+qC2DunHJyVm8nrKTjQwMgKr/AH7rLQtPt4o2laF2uxMDEixc1leVzdJEhjasCCba9YaXubt+xGd4xduGbGT2yNxQXtww0wMr1JhiQLur2VZSNMDvIK6+6lcyO3UbqFUd3dBHaHeH9PpNPvWrb3bZjKsdKTcPeK3hsxSZRIxeuxWdx7uN5xG0b262mZbNBu8Okm8frickFs+6BuLgnJUOOBm1yUm8c0uzvwxD1ERUF24kIKZHcTDGasXnc2qmnEQU661e3LUbtkj3LIohR5FrPzDE0Vzd5r9Yyv7JYmNO7RbCMwbfgQ3ZLb1ly1KjXECKy1Q50WfZhlInvaMTVq68a52pLxrbITV2+bdW6O8pIQGicdrddoNPQ5G3VpU3F8EP3W8yMCMjPXFgFwnvDJMEXWtPEtOhnKcm9BNNK5aG09PeE33fUXigJei1iY0m9ZdSuF6BMoFs0F9cOKw2wA5oODon3DRsCybZ6o1lR3roTdXAbdiWSO2J1iJrq7phnKU6gDtk11l5APP7L7O5hWiWsl9yk5idm2Ym5fKpQI/iazZEvvblQXke7vQS9Ju3v29phB7caIMZlt7DEJWaveRJa9c6bcbuNuPLtkatPC23ygpHxb350ey/+ofFr/24jc6o7tIiPpu1zGlwqPtV0sxaAGP4SjWPatvDp/jFHYQbHs6hurR2lAWAASCzMnEuVxAdnrCUfat2qnVY/VqZBoExk7mZNegD7GcrMi5mclvbDarxgRSOszFOthM4dBGLIHSrWzKbW1hm9TFEUxP1YjFK9zPiSyCUqEht3EX7k62FpgzeQMDXaa1godo1cWvUSqczAxluip7PUXV7mMKH/ijoI3NPqHbzCAkosgh+beXeuAIU2YJ2aERQHwxTaPiRnLdAWusxHZy4RizNn7XJBT2YE7vt2xq2G0fZwn1etw37f8dfVq53/bt94xOfoXYKS0jAj2zO7GuxSuR94tgluBf1YGww6l2hNyzR2Qn1P2pxmjQ6iwgTA4uG6irFFB2eALtxFrNU67CHs1IQraxkSsiISt7cbZWMCKR1madZLcwjkjjcvGVKXiWAQUztjTXpWNvryTyAowAaZ2clkn7xjBrhZCq0xPJ2dhTIwMx9XBjSuHMgVnvCLe1i3JxQ0yyHumnoC4WSzjumosFbmkw2Mli9hUFgILIOodP3aH0cf4e0T37pMuzkyKthsWS9dDEYAYiPuiptmNvrkpyAslgOpWa9yyXJKIB2RM2Kt9sQmYYYmBgezwFYhmZ7rZZBTYqkmTuPac6muuhVnlwmwd06kE9mhItHqXaGyGTS7XG5rsxlJxETD7cLgYEte6dRkrJRqcs5Isn4y6Fe55Exhy1ew6Gy2tS3qGzKx21FkoSnQi2Se/HVp4W2+UFI+Le/Oj2bTvK8P/JOmPZsPgEHkawfatvDp/jFHdpWWkzP4oGZi8QvqTNpztbATXXokZL3+6JmY61H2mms7Vwyjcc3tjtbONiznaN4giXG6ftNYAq6xO8R1/EeyJ6xEkEazoZSIl9ZWuhTuLQT2FKng0jGNYkNNYK8SJ7NZ/HAa3Fwu1XLWTMDXXIiTj39RHdMHeIWO+ZmRgYOZ6le7SN098Rr9Y2vfOpaQeyZ6xHv66xIkI6Jct8FIT+EpGYBpBdX2RsysRWUVcdoipT5gCk17dRK/QDMZb4P3e5V2lxCI6+8O4aN4LmB75KY12xeIKbfbMzm12Sl4PGTD/BSND2hbFrpJdzMc0y6XqZSZwKC0ZB3qQYxc7twDumBvEHIxBfiCTGSv0Bv3b42hkob5DPw7pLXSIS5bw3rnWNdKY0FRG6fvnSI61G0i973WQsq6ler4mZjFpupbwabA74MNNwleIE9ms/jgJn6xttGTqUQB7CkrxIHIzM9xCMz9Y22+Q3FEiUxNdYjVkTMjIDBTEXaZyRrMEG3UVPB2/b94FtKCu0iURMz3nsiY7RtZiC3Fpv2aqeDpZA66hOhR1IZID3u8pHXrU6xHve9EyFBdpObfTX7YNwVcOhbLYckjvPSh7Qty10ku5mOaC8iWXYkEiKZiNT7Qt15N+4dkjugLxbXqEWHHcfuDeIIlxun39dkpvkPPYG/X3vptPC23ygpHxb350ezbztfeKnz5I9iZgYmZ+6Pvqwj+mE/UIme1beHT/GKUq7Q94QsSUxmSGNRdEN/EW0/aPWY0wbsLrMlMGLFiJg5FzkftCCyW0L1wXMs7O3J7gSQnKrR+KyQwNItzid6GE2Gbl7dpTFWirtGtuSxxQRSLV2j8NtamPchkFklF1iuh6YtTuhZFJFvWXRkmRAxCBm4trtplMq37bgDCe0VtdZtWsNxFp3GNxnuT6UtDtxCKCyeErkrBTtylgUFas6oTWqVzEh9phusTx6UtSu4bFMXey+5NaSgTlVWCGI6qCXtgmyY0+1e9l+OPQWAvYRWjW2j4ixUhk7fdAbjrWMwSIkkRibZFyNxbNan3oUQMJimheDcgGSJXjIYsnIizIR3ytrDOLBTlLbDQiJlxlFYLrDcD0xaldw2Kuba5n6wgFa59sjJhcy65Lpp963gIqbS5aNiEpkYG2NRzFq7prgfq5K2YSXEyp++zfCu8AkDWsWWg649Zc+SKLpTCO1cuN0qPXbC2vDtOBD3+pAtrbW5uJvtViMNFcjVkqR3GVkq3n7tLm3u2meqt+16zXMLbcR2rbivuZcaSdxbXTCZ9lviGrJddM94dprJezMWoT0bmIZpZotmxt209N1eW+47dYmBiUKtF7AKelWiSn8CrNi3kJWSSHJJi/DdYgHpS1i7y1araN1fGapEWEMjMWzeqlgLJWpFkqzszVtA7JAyuNIehF2BdmxKYiEBIHN6trDs9i92x0EVYLrE8emLUruGxTrRzfrANsaOkDGWWzztGwPZy1MKQ91ymtu7U8U7IUyClNq/FZoYGkW5RO+xByxfDFSGrjOPptPC23ygpHxb350ezcqZuB6o1Yv/AEpct4bwn/xP0tLrSm3X8KJ+2P2rbw6f4x7fdH5wEpXJEChGS++fpWhKd0rUAbvv/K2nhbb5QUj4t786PabarM8gyS2efF2hH4btRRXSMZGlxdEceUAEBgRGIiP8e1a+HT/GP1y08LbfKCoNym3P9Kw4I4mJzu4D6zu4D6zu4D6zu4D6zu4D6zu4D6zu4D6zt4Lqzu4D6zu4D6zu4D6zu4D6zu4D6zu4D66hvBdSWvWpYzYu1iNKzu4D6zu4D6zu4D6zu4D6zu4D6zu4D6zu4D6zu4D6zu4D6zu4D6zu4D6zu4D6zu4D6zu4D6zu4D6zu4D6zu4D6zu4D6zu4D6zu4D6zu4D6zu4D6zu4D6zu4D6zu4D6zu4D6zu4D6zu4D6zu4D6zu4D6zu4D6zu4D6zu4D6zu4D6zu4D6zu4D6zu4D6zu4D6zu4D6zu4D6zu4D6zu4D6zu4D6zu4D6zu4D6zu4D6zu4D6zu4D6zu4D6zu4D6zu4D6zu4D6zu4D6zu4D6zu4D6zu4D6zu4D6zu4D6zt4LqRBAhAEPeIDE1//8QAPhAAAQMCAwUFBQgBAwQDAAAAAAECERLSAyExQVFhgdEgIjJxghATQmCRMEBQUmKhscFyM5LhI2Oi8cLT8P/aAAgBAQATPwJEb+VF2oQy0hlpDLSGWkMtIZaQy0hlpDLSGWkMtIZaQy0hlpDLSGWkMtIZaQy0hlpDLSGWkMtIZaQy0hlpDLSGWkMtIZaQy0hlpDLSGWkMtIZaQy0hlpDLSGWkMtIZaQy0hlpDLSGWkMtIZaQy0hlpDLSGWkMtIZaQy0hlpDLSGWkMtIZaQy0hlpDLSGWkMtIZaQy0hlpDLSGWkMtIZaQy0hlpDLTzQ9DfkzkehvYTNf2Pdu6Hu3dD3buh7t3Q927oe7d0Pdu6G35A5Hob7U1hdETzE+w0VF3op+Zq6L2J3zP8Dssj4XJSOiZ3JwI2pn5CmxVGcV28CMs9v7nwRvERJjhxMpjj7NjjLJZg3cRzkc3LdxI2psF2Kgi91xsRRvEyzbvQVPEkTPkfFUmqCwi90SJ7uSiRlUbEXT7/AMj0N9vk1I+y8lTsVrsnNcuIjlnvRplwJWXJEaEqqZ5QuRnSuX7wN3Komq06Sg5Y8KzxK12JH5eAiqqov0EmFnaoq5d3RUWD/ITV1OkpsFnaswOWEK11XlwK1zlIy7o1Z8X0JWVamyIPiSpZVIOYjss9swStKovGOAvhWrJWi+CHbP2JVq4bt7YEVUflrltk+JJWVSP7+/8AI9Dfb+V6ZZ+f2X6dq8/x/kehvYSFT/yKWdClnQpZ0KWdClnQpZ0KWdB/h+ifIHIbTHgTeqE4dxOHcTh3E4dxOHcTh3E4dxOHcTh3E4dxOHcTh3E4dxOHcTh3EsuJw7icO4nDuJw7icO4nDuJw7icO4nDuJw7icO4nDuJw7icO4nDuJw7icO4nDuJw7icO4nDuJw7icO4nDuJw7icO4nDuJw7icO4nDuJw7icO4nDuJw7icO4nDuJw7icO4nDuJw7icO4nDuJw7icO4nDuJw7icO4nDuJw7icO4nDuJw7icO4nDuJw7icO4nDuJw7icO45Hob8mcj0N7FSFaFaFaFaFaFaFaDVn5A5Hob2PWpBBBBBBBy7OyF09k6Qkm/j2Z3Rl+/t8xdgmziTGvsmPsl+000+68j0N7HrX7Dl2Z3VE+JUiJPiqoWauZr3VTbwkd/pafxuPJRvjmM6v6Gb0/lwzVdP3E2rPxb3Dufg48T6ypr3dF+hpmq5i6o2rKOEDvFqnh3ILrRsgjOI+Bd8n6ZzG6TC6CbVQa2P9/6hy8VFdmuhHfVNy/pPi418Nxi+F3e/kxNn+HHibMzD72GqK3Xy3iZNzauTeAmcMRc/wBhiIjUf+njvGaqiLqkbIMNO4jdv/InhbOtPA+mZ/8AXuQX8tPwi/8Aw/v7pyPQ3setfsOX3iNKfbTsT8F5Hob2ExXJqe+f1PfP6nvn9T3z+p75/U98/qe+f1HOV2nn8gcj0J8lyciP0IQQQQQQQQQQQQQQQQQQQQQQQQQQQQQQQQQQQQQQQQQQQQQQQQQQQQQQQQQQQQQQQQQQQQQQQQQQQcj0N+TOR6G9tned/wACd+PONBF+wqSfZtUT7RF07aeyc/ans8jd995Hob2UyZ/uMLupzXURPZh5Lz3je6/6bRcnJy7S56VDU0pjqRpLFEbCZJM+YiKrlbwbvOKLBG6ehCpKKsf2RHiI1SKoFTVXJUKmaKJpKIRnSrqZF2SR+bJBYld+iqL+tEjlmRtbqikeGI6iJKqrFjJNxE+PREIlyqm5BPKRE0lp3ct0ZkTloJHwu4qa6LCCJordymIlFK2lNH+plmhHKF+98j0N7DlinyTRR6Ur2VyHdxqeS6/Q3cOz3dPoLHhXfkVZITCtdvSCe8s5LIvEnJJO74tdwsRloS2HoiInmN+JOIkQifQymF2Hw1bxNUVNqDl3eQ9ZU2ZZSLFSId3ReRKZo9ZVNDKVbuUq1R2qDtwrtJ2Cu7jZ3IN3LszEd3kncI7v56yf5bxy5onIVdY0XIdrCbPvfI9Deypi5pyXUXNn+41VfJDE15NH7PJNE+QuR6G/YIkfInISn8ib0Iw7SMO0jDtIw7SMO0jDtIw7SMO0jDtIw7SMO0jDtIw7SMO0jDtIZaRh2kYdpGHaRh2kYdpGHaRh2kYdpGHaRh2kYdpGHaRh2kYdpGHaRh2kYdpGHaRh2kYdpGHaRh2kYdpGHaRh2kYdpGHaRh2kYdpGHaRh2kYdpGHaRh2kYdpGHaRh2kYdpGHaRh2kYdpGHaRh2kYdpGHaRh2kYdpGHaRh2kYdpGHaRh2kYdpGHaRh2kYdpGHaRh2kYdpyPQ35M5Hob8mcj0N+4wm2eg5NUPhelKipCzuQyqlM/IUXRyJuGRMJtzImdcnSK3KWi697SI3kJVK5pwERGrUmqai6ou4boizoNTwJxE2lXdcizsMsl+p3e9P5cxudKcTz/BuR6G9hcOf3qPcrce5W49ytx7lbj3K3HuVuGpQ3nqNSE7NW1J6k/mjT6FWqRTkKuSoqRCiO4ZZ7RM0zWSqVcqxmKsbZSBHbM+pqm/P6DNFVu/JBHL4UyifMnKnEN0JAqxqs5k+F0U/Q8irYm4VeKLBVkrV8U+Yq+FyZfT8H5Hob98T8Q5Hob8mchFT8ibyW9SW9SW9SW9SW9SW9SW9SW9SW9SW9SW9SW9SW9SW9SW9SW9SW9SW9SW9SW9SW9SW9SW9SW9SW9SW9SW9SW9SW9SW9SW9SW9SW9SW9SW9SW9SW9SW9SW9SW9SW9SW9SW9SW9SW9SW9SW9SW9SW9SW9SW9SW9SW9SW9SW9SW9SW9SW9SW9SW9SW9SW9SW9SW9SW9SW9SW9SW9SW9SW9SW9SW9SW9SW9SW9TkehvyZyPQ37RPkDkehvY9DfsOXZq2O0/j2TpCSTrx7U7ljt/5djghVpKxJOvtmZyn+/wLkehvY9DfsOXZnalROrsok+KVas1cxucNjXykf8A6c07v4N0KfF+qrgJ/qYeej+A7w1/+hdEWe7JsojX/GRdO8xdOAvd+LYTotOzjI1EWpITwrG8ngmgmq65oN/ZF/UYeUxsd+o/MqVCpquRP6zesdRq9xm6Y+FDYiL4Z4SN093CTyG5trnXqYfgflqhPFNDaqU5UcziiGzZFXE8m5VeSjfyR3lTgInd8OsbjHT/AKbp1TZyMTWP0L+Y2xTlRzOP3XkehvY9Dew5YGMVwqtb/YuKIs+FPwNOP33kehvYjMbivT+z3g7Ff1I+ROR6G/JnIc1F+BChChChChChChChChChChChChChChChChChChChChChChChChChChChChChChChChChChChChChChChChChChChChChChChChChChChChChChChChChChChChChChChChChChChChChChChChChChChDkehv2COz+ROR6G9n1e1UkVZji3p9lv/ABnkehvZ9SdnhUvbX1DU0pjqImaSxREy0mV3kTKbFRu82SmRH5Z0z4GeaKsGiQ/htURImOCkZoiLFUitVHIqfyg2e6tNREU7UneIiqqSkrltP8Vj8M5Hob2fV2PhZ/z9h3dOGXEWM0XfkZZbIMpa7gZSs5Zi8TLKTu667ju5KzTYLGpPdneLHxeQ74coUVcmTuMp3QLxz/DOR6G9ljqclPeKe8UxHq5PoJ8h8j0N+TORE/AhSUlJSUlJSUlJSUlJSUlJSZSUkJKkFJSUlJSUlJSQNRFKSkpKSkpKSkpKSkpIKSkpKSkpKSkpIKSkhJSSkpKSkpKSkpKSkpKSkpKSkpKSk5Hob2n6elNo1rE/oelK/VBdU+wVN1Q1NIjqbpYoiQmSTPmJKqreDd55LAueuRH5Z0E3Mnf5G9NiipPATSW7iOCkZLKEbXTr9BNak15bhPhVUkiVYjdq5kLsfH/5BzVSUd/7I8SRImeT4zVdi5+xdUamU+ZtajtBE1RVge3LwTBTopGioIkr3VXRDyWCKlVU/rj7Kd85KRK89yCtzh0z/A5uee7iQsrkinFywJltUREnjkijWLLUja0bpuTVTcpG+clFSc3bCNFZuETJaZ6C7adfZlomu0hc0VUT+xEjxC7NpGTmv/sRM85HNXVsdSM4qpn2cj0N7O9F0bz7H5m/lPPt93T6C05ou/InJJ2EoitdvSCe8spGY7iMjvJuzEVJz+pV3muXcOWVUbrC7MzzGxrzQyyjcSmwypcib8h3weRUxWJn/AsS10zlkZeJOR3dm7IlPE34tOHsnuIq7YF8LV4Hd8Wu4SPKTu6fQymF2aE597VMxeIi+Jookd6NRuSKiaCxEJyMsv2HRry9jl2J5QK6VSNwkSqxGeUDFhc9Z9iKneicv3Gfl3ZiRGe+TKUcvLifC5fYju45U2qd3X6CxHd5CaoqbUNqwKuzkLTmi78j4atZ9nI9Dez/AI93s8Ed29iKuwpXuzsKVlEbtI+F21DyjMjJ0bl9mypNhGSqnEVqpC8RUjUjKp2wiSlZp3iJMNXaImUqK1UheJGcu0F2KgvwzIuXi0UoX4shU1RNqCZrCHkLvQVqpDhE36cildN5sVE1KV8O8pXPblwOKG1VI0VTzFTeRkjnbBWqlKrvIyRXaIK1UiEnMVNii697QXYpGVW4pXxbhdhGUtI8VO4jYUzVw4FKpDhfKSnSrTkOw1SaeKkZOjcK1U8OS+3kehvZ4P8A+ez/AJrPbq8M7IKm6NjoOdSrVTb+5MQqT1EcmVWROTkbpBM8yrOFWYjeT4kZpzKm6IqLv4Ep8MlSRQ2NE3nMluqTx4mJHcViRxyGu7jmJsc3+CpuiOnfwKklWt1ROJM5KLEKrM8+A2O9Czqgqpqkr/ZUi5rH7EwqbUVJE/7k6SIs5KslTfDKLv4E7kiFEcmufUlMlckDKe+q5ckJSc930J8NRvRUgX9KNUcs5s2KMiV+hUkUtjZvJyTuoVZI1sTlvFhdiJ/Q34las5xsFWpHU7FGR+8GVWazHmVN8NU7yU2JBV3Ht2ZfmEiXbCrhqhwgqb4ZRd/AXSWxkv0GK3OFmVUlMqyfFTpBKaOWdnt5Hob2fztXYbUXcvt8vgT+/wAKRInsNbE/deR6G9pmX13jsLP9lGJQ3qJ8h8hqsjwom1ScO4nDuJw7icO4nDuJw7icO4nDuJw7icO4nDuJw7icO4nDuJw7icO4nDuJw7icO4nDuJw7icO4nDuJw7icO4nDuJw7icO4nDuJw7icO4nDuJw7icO4nDuJw7icO4nDuJw7icO4nDuJw7icO4nDuJw7icO4nDuJw7icO4nDuJw7icO4nDuJw7icO4nDuJw7icO4nDuJw7icO4nDuJw7icO4nDuJw7icO4nDuJw7icO4nDuJw7icO4nDuJw7jyQ//8QAKxAAAgECBQMDBQEBAQAAAAAAAREAITFBUWHw8XGBwSCR0RAwQKGxUGDh/9oACAEBAAE/IbIdvQM0m5/A/fv379+/fv379+/fvy3ZEsbL/bfv379+/fv379+/fv379+/fv379+/fv379+/fv379+/fv379+/fv379+/fv379+/fv379eMQ/gakLs/4yE7CbZk9MJVOv8Ax2+x69evXr1C9hR/aa+jd8vvL77/ADsJtmT0QkxpJoOwil8BAoEYBn9gaq6h/wAYGBVsAVf3tEdfru+UTuZDswMIl6cARTx1hUz0RTcigPeolP1f7DKd0ACGD0CA1N0LFxggBoIRRcOFXHgZbFhqjhdIRSy4FV7ofFRPkUHFUe6KX81XTQquMMVeGcmR0GBncwJOxYgMxsdQTTah2+YAOTGLDVHF8QYxh7tbPKVnDAX7J1zBhgG4+ECVgqhUDxU62mPqP5KIhg8OiAKugLIpiIHMUwBWrNoGjUJRUCgJqWJEV30K3XNIPaYsBACWc0JWDqYnQos4MVMDV9yl3logAkHiG7yh20L0okEtVrB5aBirdTvRr87CbZk9EJLmZF0RfaI5J+lH67plKx2Q8QIh3kHUAcR81kErGNlD3iax4pRqZUOESpFKICsqrlaiV3iK5FEo5UvCpacK7KKdXD1Ba8VkRcpUpCGmB1wq1GFpG0mcrsAsCgnqnQSqCZo2oCh52sMyRJ/sM3nw0uE/qCgrTExDaKh7wBVxmADjQGE1BYuSD2xV6NK+P3IB2LZ04CxZDEB+vg1Ylc5i16ymxSPVwxTBaH0w3AlmBEXlW7KFleg0ntWGK0EiZYHpawVtjDoKLbKbJ5moVGgwb03Q5hEEbIWqkAg1HGE+Ngym3SPdLD83CbZk9EIY3Q8CgHQFHL/YH3GZIoADOEZBAvocXd/r7Nqep/aCoBGogAFBb/Ewm2ZPRCGWAIIIYPvAjIEgfQAV0H2IkSJEiRIjZvrCKhpgHv8A77sJtmSXrGYe534G3bt27du3bt27du3btHUYXLvv/ttu3bt27du3bt27du3bt27du3bt27du3bt27du3bt27du3bt27du3bt27du3bt27du3btM+7Zkn6T/ix2E2zJ6YRC4IguBHxNueZtzzNueZtzzNueZtzzNueYJIFQQEOVP992E2zJ6YT4TnHEOFThU4VOFThU4VOFQAKAafT/U3MSGb4fSueLNVduLUvYEBkUDQ/q/oWywepCj6g0EVMAy91C/kKkBPsYl/iJMAh1KkEamTmC+gW57MfV+mn0LCBvAkez+0KGPE60X0ridXq6o5Zh+/4eE2zJ6YVz7qF+c9jWeBtthqIfWSiEBNcXcNUNxQApo/9kldgaxAjjAFjkZwDMwdHoRuc/kH9Mq43ykmxOUbw/6Hmrh97xclyWoAuyrmYo0hRNC4MKwiTbQCXTHpjBOxohif7Lon4SfxzUoqAMOhMGlLBGh9mnvMbNlujtkZQ3iCvzRV3YENTFEDA/0ZwdmD4ERqjn0hChSZ8upiPHAZBvV+1YeRmIonTMPaP3CorreMoE3v1x1XtESiCKYjZdo6luUsmHghoYJqNpM3pOmsCCDs4UBnSU0r1g8GpJBQchMlh5JxS7qQMYDqMFU6JB9BImAa7gA6DRhv4KPJAMcuULzQIGmqYZtYjHpQQBr/AKrDrklJirFHcMdYnWY6T1m6j8iJZqWDl1QJ4CCGxj+FhNsyemFc+6hXaCaGYiDiZJQSEStEMojBEWCAGCEFgJoC0AAoqQgrgQkwRmC0JMEQyhrCMAt7cVXrEWAgAYQsjDKApIIL1iZqIXUQrQTTe0RYCIJKkRJBTQfTQRB2EAACQUSJCIZCIcEZcCZgEpl+FhNsyemFRblBTNmgI+wgQIECBAgYOS4Dgr/vnYTbMkGgWcY8jORnIzkZyM5GcjORnIzkZyM5GcjORnIz926cjORnIzkZyM5GcjORnIzkZyM5GcjORnIzkZyM5GcjORnIzkZyM5GcjORnIzkZyM5GcjORnIzkZyM5GcjORnIzkZyM5GcjORnIzkZyM5GcjORnIzkZyM5GcjORnIzkZ7DG2ZJclqIGPCpwqcKnCpwqcKnCpwqcKnCpwqcKnCpwqcKhddNamcKnCpwqcKnCpwqcKnCpwqcKnCpwqcKnCpwqcKnCpwqcKnCpwqcKnCpwqcKnCpwqcKnCpwqcKnCpwqcKnCpwqcKnCpwqcKnCpwqcKnCpwqcKnCpwqcKnCpwqcKnCpwqcKnCpwqcKhUf4ZtmT/jITsJtmT7EIGSHhXM1/Uq2JwA6Nf8QVO+aH69e75QkBpIIEFXp9BhLSyxkJf8hM0RgVl9yspIhzgV6gMRmQoAD4gYhspg/QginXaBivoAoAEkk0pLOBzsFU+gRIJJDU4l0gC4DJJQCChgACC2DjT8vCbZk9MIKYBUklALOEty6F3X7OVIo1H9V+pohdX0e06uf2U7nGE1kg6lTsMK0wWPeFX1XXNMQI+xDNtLDMpWsBQ7AYsFcaQQVXM4EHgEEjJTEphHu0rBbilgoCLIa1vbmIrSAzzrEFBdukUESmwP8A5AaUMuilZWlDePvVAfbRyClPF4UjEC7reUqQsVXMAjVZYIGzxir2MDBMWegEO5YPqjnawpVjfSwi0hU6dKA4NgMFOaL7aID1lmUqdTqVrCOJgCCp3k5iTSNGbs3MwtSDzSaqoUGVmTaf+4aBQmLCmy4vjGauDIpDNDJ9oUMtRYFAB1h2hWDYZoCxMJ3hKlFIAJu3ekGOLZFLtl2la+n0zd46oRSLssTqynWG2IEdDQt+UYTbMnphLba7DvGsFEh0wDkDft6RYSKlQQP3jxnNITUwRacBNT1PpsTYE4UK0BocwClPOB2IoGvEkEKlSK4mGlKlWaoBSyKhVRqCKsf+RbocWmaiMTEUrsUDVZh0B6B/qIkmR7WkBCeR0YyZcLaUi5sIgAOwYYZisZgHr+5AlHS51uYlS37hmWyHCXJR3qmnB5JAfVuJpL61AmkgCADA0JXs/CGhIBtZAagKGcuBV+ghBfqNLP7AdkMIZcDSLNXOUfJU9hkfaKoWVDVEfTCDkUNdkUefFgDoBkdTDqtS0EukGYQQh4hIQRKzU7Lzq3e0uHil6pi4UEQKyCCLqgSSesochpXuhAYh1jpU9l2QEekNEQujsAA/Kwm2ZPVC0PaLlcLnB/kv3ASn6p0CnvA9OC9iMmU6zavaeTHd0xVbSXYH/Auwm2ZPsQgBBBARwMuRBD/4M7CbZkguAlJju5/AuXLly5cuXLly5cuXLhBl4Qo/7a5cuXLly5cuXLly5cuXLly5cuXLly5cuXLly5cuXLly5cuXLly5cuXLly5cuXLly5cuXDUyJNsyf8ZCdhNsyfgwt3y/28JtmT7kIEKDFw7P07plKOg4mzrBxbKogU37OEml+gCVKV95RbBvKOHSnXvA5m36GwqbBVuUq20CIVwekR9dYbolCc8VCJFgUm5VApFPAfgJrApbrAkEUSuB3dISw1CH1Qgw/dYB0kVOGrcYB3aSmgSASzg8CGih4k4m+V3BgVm/tDwEBDYCY1M50cLOxIAMXZNCAiFLaYJgCVlCyQkpDnKrkrhLnTgbJoFqoyMpkNYsf0GYC2IAsRV/i4TbMnphFDB5pjsD1u3bt27duDVoDA1FoA5PRtuuUzmjVizSBL5Y5YA6IIpMQxegQV6uENSIA8aFKGFhkFMIiizYa2jnxQ4wC/WE9WPFeRalpWMRQFxFR5bCPavAa3RNYABhRR3UfdbEcsIIALog2lRB6FABog13MClCIlNYAsAAR+pVqZ1FmAWcfADNSx7CtEzDdlNfMIDJ1EJGDWKmImOKDAKGkDtwOhCmBSMBlPRVIQUD1iv8XCbZk/Bhbtl9sAkAghEHWAKUwAgPXT/Iwm2ZP+MhOwm2ZIGU2BHdD8CNGjRo0aNGjRo0aNGjJjaQPyf7eNGjRo0aNGjRo0aNGjRo0aNGjRo0aNGjRo0aNGjRo0aNGjRo0aNGjRo0aNGjRo0aNGjRjVhtsyf8bCdtmT0wrre01DnOmc6ZzpnOmc6ZzpnOmD1RptnX/fdhNsyemF+v+7FuBAGqjZYu6MGxg7mavEe1aTEAAoKDRETdM5eI0w4hKR5Q2Angyh5gyBAkBhVv7RhNyxRWYjCmgyjFASImcBqBQYVL+QEFouADYuXKNYRJ+4QB5g/gqqoFKBWEPXDwNYfZR4oFNZcMLOYZdtAr2EAghukBBsXNSEgEAmNRg4zQRhN0lBsLOIqiiFRWMAph/i4TbMnphfr/ALsWRlW+Bmh1ERiCAAYB1lQYUQYJ2OtHdLH4oC0EB1JQU0MhYKW8GcKw65zKBiBUJGAV77WDtI6JjHMagMa8DCa3at0eCU0CGKds2GHWHA2aGB4XdiAZeRFY1nPSHBPLMAgT7IKgbAA1QQKRkUUauwQLOWosEVdTBtHN2XyLlmpcJgADQgc6y2s1UCKHhVBHmfBnSzIhkFFMpBz6QahiSpQAM/wuOklAiMKVaILvGFiYJSbcQkkgwvZRhw3Kips80Gw9YBUCAsrSRpt2SvjOsPXkUYHwjDrr2Uu/ogrAy5cb7y9exdIWp3rBWGN8xWHSJFEpgDFDWPlCjBUKBkEIKu8PNPNpAIwCAawrdgaYnsmNASb/ANkMkAQGCLA934mE2zJ6YX6T0QcFhk/1FHlKo9wFLnxn+qLRlAEHI8CUl80PQuhf/D0AqJQNUG7lW90JldPy8JtmT0wi0pjsdZiV2ghVo5o37qv4E09OF+//AAbsJtmT/jITsJtmSKwNZKZs3d4m7vE3d4m7vE3d4m7vE3d4m7vE3d4m7vE3d4m7vE3d4m7vE3X4hqAnP45u7xN3eJu7xN3eJu7xN3eJu7xN3eJu7xN3eJu7xN3eJu7xN3eJu7xN3eJu7xN3eJu7xN3eJu7xN3eJu7xN3eJu7xN3eJu7xN3eJu7xN3eJu7xN3eJu7xN3eJu7xN3eJu7xN3eJu7xN3eJu7xN3eJu7xN3eJu7xN3eJu7xN3eJu7xN3eJu7xN3eJu7xN3eJu7xN3eJu7xN3eIdvfybTk9UKvi0DpNoYCUq94e0YB9n/AAbsJtmT1Qt0yRDIRDIQwK2A4D48GMM2+ygAQADEH16BgCZHWn0urIzVMhjASsR/r4TbMn24WCkf9IPXfMpWko+EFYF2NRHGsBU57iyACXWCkRupx1Yh3ghfRwpYEslZOGkFiaEgUsqUpaCSpAD0DgR+kDYiXga5Q1agQh6xgyBrCmA3EtCDUIvA7ztVgOqriyjQ65e0xrDECL4cOBDmGoMaVAGNVQ79BATGYyZjl6QIN+Qiiz/pX+XhNsyeqFstHoHi1D38dHvHtKA6nZx9fybGVooAuA4g6K6bo0S6hycqCOAyEYTsNQBn1H9hJSSHorWK2QgQyCpJDPCFkrmoTsWqKw2SBLRPssRfcn2R8oZdOeIVSAlJVUq/Q+zUuULQQMFAfeNKAAwAZwA0xiI8AKew/wBcrzSMGVaitKab9LDtYa/5eE2zJ6oRQlMapmLpE+lBA/YnuwVAMRWAgP8AgnYTbMn/ABsJ22ZIaVsB9zNR7Pmaj2fM1Hs+ZqPZ8zUez5mo9nzNR7Pmaj2fM1Hs+ZqPZ8zUez5mo9nzNR7Pmaj2fM1Hs+ZQaaSDAxbBwWjm8EGa3CgZCXhhkJRGHabATUez5mp9nzNoJshNwJshNwIJgrBUiLwKQg1QDm0E3wm6E3Qm6EPETdCaj2fM1Ps+YOClT4JvBAxEAGSRQgAAJBqEGM2Am8HzNf7JqPZ8zYCbwTeCav2/MvDKgQycBNwJvBEpjSTAObATU+z5mo9nzN8Pman2fM3gm8E3Qm4E1Hs+ZqPZ8zV+z5mv9nzN8JvBNZ7PmbwzVez5lM+ObZk9UIkAEkqDQONysivXQSqinIJ+yhFAIuIfokfqIQUSo+t75+vbcotqIlggZetYBJyvWAtNIBV4KutIYQrM+kHVBAzxDhOYR79IsYUBZm/ZROqhWIgFdJZrHxUQgatIqwWkQMwius0oB6IjogJXSPaD0YACAAHeBY4igibYQMf3XTRMpG03/ZWugHWoVguAAYfNkK3CLRbIUVuuIopV7v8AbF2H7heJS6BdaA60HdCBz3sCRToYP76QvUFb06xOWkiKGA2WAH01bGJNTULQ8oERiMxvHWOYYzEJXvQ1lKXjxUpO0PWHXsAK9qw40NMDFi9YEvYCRALuaRAEgiz6zKX7GizQAlJiBUHqHKWd1KusaXgsG2MMTU9NjHqeoIFAL3glPMXBXUnAHpXRCAirrFlAOGyQvQOGxICMYw2c4WMQDChdaFYVYOa4PqGDQzFzQIJs0AGjjxuKi8wMRYAkk2840vO13GVwUCg9QEJHF3WiGSAcB3AyCKhVE0bdDlAjLEP3huBRq6JtEcbQ1nIkMaHSF4raIBpc5QW4QsFBI4YCVVyDbPJ0hJ9mYRv5HJwugEGqOMASP6q076fTbMnqhOIOBtiCukAAAAAQA0+tnfaHeLxrC/sM2Y9a6JacovQGhzBNw7BdiJIxaOiWBkVxMNDHusNAKEtlAg1JUCKiKsTg07UIbU9QuNDBvnxEKhoIRmb/AK3AUGAIbYDMmA0kEcxQIIgWOjJrckmSdXAkyEOWTLM4doxdRglBhBgi5xTVASdcoTg/QWSdUux10ENSwO1KukxBvJix1MPlBsxxRL5iChrqR6+pZQGCKoMhaFKQrDZBg68C0AUEMl9SQbCAQFJMAk40PHEygAA6Af6zAjQZAxgaoKb6ujjgZtJuEkrFLgXYhpBCi9AA7IZqEypAiAJgaYPCAEmAEsroouzvGouhuRfCVttSGLJg4HoA+ZsGcSA3AwrCtglCUXQFlEGUJ2KjQogioIOYhQuhUi7Ac0AU7BbNgULCLDcFcqyyNILbgZRWDCoJrHhoQZJt1lq37t1iI1XhNOhDvgCFOye1yaBJcZvJGNcvJCqAzwUxNH7Gv0IFmFzAjOWShZsl07Z7XLViQZwlIJNqzQJAlaQDWGgAC6QZYgWQeAAOsGUNoihcUBlM8TEI1CjvVNTAzbMnqhAM1NoI8PSXRboQv16/05gHQ7GR7xKO0iBorLVvABMBUQRIGMBkI0Rc4jMtCA7+hFCGbGDWgiROu2Vw+hC/qJ13G7QVigRY+B2d4KCU4hyrhLmtKKlgwuJwPChUDd4GkSGQSOmEKjTXsZMqQ5JCVgJKFZTf4AsM94DBev2ekwpEBhoGYLBjVwoigxHBQTBmEzQCGkpZy5h/J0i8iVWLoejxtD2uU5ADl+yGODwQ5gaQThKEKFCSDkaQ3BRJEQVGFKSwCEKALgmLdEIjuqjdK+vXRmKSnfIISdgdHBR9ao5Q2sZTjMpYVFTXTGXHVUERQIIOUMNYQ1SMAIo5RWNrJ+95VoMcdQSu4OosgiBaYVlQDCwAjq5aCoTIKoUFZSmBMxh7xJRQYYr8qUgcehQOGRnChCABPZ6yv5CDIggXgVCcM260iyBm4CzGKGkRAVpEk/4YChsiwoyHoowdjk5u1QSHeVhAPteGiesAtAajBegsCIQoAuHf6KzYYHnBhmYQhPFU/aF6ZcAuTThADQp7Ott4RjiymBJBJFDp9dsyeqFa8V1RfA+gpCASWQFWektYj2so/r1b/lDJ/kIcWjXSFlTaoavGkr00gSkhqsYlBjUWgDigygUxldAYDQ7RUyLihNK7zcqw7LcDMISKbtQ6xzJw5bFhAgpoL5DDxzYxkou0jJWalAdZYtDgSMP6TKINAwGDOFi4tNWKDxxmeuWmLSIiuIACVY7UQp2hKTvQ/A3Re3lKqTCz8XCP3SU1YlkZKAC2cHM9CvioB2hBZJUo9QAwe4xZhMTAwpoBDYU6BA4A/ccfl4FmQs5e3YqLg9tTo71Fj+WQAQlqUjygNjQtVyCs0eGjepz1tCTriGBqaHcgZebfwtTaYOa0NCXwELR37R1EzcAmjROIbgG1KJpbzpAuthaxpGGcBEWATiMSQtC1aKAmIgdG5l5UQCS2l2rR3ETaAkQDo3OEJhxEaHnQDnGLMpCnrDSmDgTH6gyJVcOQrQxbEgFY4RuUhYk8jhu8pj/0KsZoKQxlzpF8DwAUiCrKg0eXhLsCYOcPrJg1oFDCkKpgSiAmDE6wj6YJHeoOgcLgq0fX2QIrCsJnQUyEFwNYyYDXBYSyWcBCJCrvNw5cfCMsLvphNsyeqEInIg2XR68RrK6YaCEBgYEfVqGhgn9gn2QBBW+78CgAB+UQCQVa30ru+Fl1K/oNGyowdxfiYTbMnrhYOpYx/Yd0s80G/hlUQu5dVV7wHZkAID/gnYTbMkUj3cBks3H4AECBAgQIHaBAgQIECpQfOjC/2wECBAgQIECBAgQIECBAgQIECBAgQIECBAgQIECBAgQIECBAgQIECBAgQIECBAgQIECBAvnV8BUxdE//xAAqEAEAAgEDBAEEAwEBAQEAAAABABEhMUFRYXHw8SAQMEBQkcHRgaGx4f/aAAgBAQABPxAFHXJauWlVjATATATATATATATATATATATATATATAWH0EJYuDATATATATATATATATATATATATATATATATATATATATATATATATATATATATATATATATATATATATATATATATATATATATATATATATATATATATATATATATATASBB2+hGMicfgt/DcH7t1dvlCb30GlgnqaIb0gb0gb0gb0gb0gb0hVqvaVIAlt6DlqB8PNcI/ZWBNpt9ow1+J+cdXb4wm4W7GziK5ZdUNEVtTOpd1d1y/YPcpf8ABCyHIzIe8DKYjBZCYp9fHcIt08lBWWg4wGONZF4kEiVWwi29jSFlrlAVMzUxM0Qc+gBRWCF8zqsxJ8kYGXWcQIlCopYiYUlpPsJxRhVcoBh4veSBDlqFMwvNiUoYdoFCwQg1oj5Q242CGvnUkaAGsGZehiRau/YcswhNKwbiOihE2Yp3IP2RGxpqLllecLKWq7o1hyBDVtOVzSCkkKMW+zjs3i++KEstGSoW1QobCgN20pqXYpUPt7KSgtstBoYc+jpWOzKiwQMMD0kQS1YLYJcc65mjVqwiiMQaacyqiUCKoxr+JILSC0rZWAEG+flOzYvUQw48OnV2jE7I3AtycAlHJAhHBgA2xVmUEIIGDf5rq7fGE3aRsI6hX2k3wonKbey/XzPCYzgmMSAML1hB9VxjA6BAlY+xra7GVpZcl/BzRVuVChcHsm/LUl7TxAWAFqxgSrYtUZBEl/2gGbhTG+byeg32AXXHEimpnUdJtZhGg0Ju1SDkxr6SQmCKm5IaVLRUIsNVGWMNi8CVuJDxAIBFiopqGfjog0FUGwy3s287ZVZvLy6k6ddiKxS/OIphiMhJmpIYS7K7AiRjEAHUJqJttvUdZVtrojDxttnQs7aStemuq1sEnLFIkhdYCAzu3GKCAoaSsce9ankSiiBIbzts0FagbKWCMGKhUsn3EqkIfLWGVSV1jdRAANAo/NdXb4wm4ZBLNGdKqbAkEFiI/YedI1kCp0IvsjFQN0cmwcB+vnuD6X1+F/An0tcHH1X5FNWqBL/7AAABQG0v9G6u3xhNzh0OE6iaiHTu3052J6gH2CBAgQIECBQprxGkqsbUYFFGD6+G4P3bq7fSFZkBmz8D6nTp06dOnTp06dOnTpk4YgmYalL+7p06dOnTp06dOnTp06dOnTp06dOnTp06dOnTp06dOnTp06dOnTp06dOnTp06dOnTp06dMQ3+EOF/8Nwfu3V2+UJu8q52lSIuFfYLFixYsWLOdoAqaK7Xw8Nwfu3V2+UJutcrUVh4r/U8V/qeK/1PFf6niv8AU8V/qeK/1D4uwUfB5LiFdKyWTSm83lwnvGfbsFaKTc3DuyF6DsNPJMfA2l1Gnf4Df0shtWjCoycQtZ+QrhWj2UgjraWQyr2G4W8EUuaUVDvaOl/RpdQ0sUF2jp8Fkx9LJf0LVwNJlBVjIDh+m0v43LlQ2xSrVQcqtBu/RbiXBqFuQ1MF1XS9KQ/CdXb70JupqH5y+HkuCavoaBosRedpARB3IbAZXKj4BgbnSIz5r+UaaKuKSK9FiL4a0qaEmq3BNC42gFAMatW4rHE5aEDnvWsFstFlAKwQElJYHBqgcuTFkNh1KEWgTK7EDdkJYXReHm5h+iHTeAiKDeROEzu1gGrxhQNqpW1bAZKqg1p83W0N90h2F0N7bkSzc8aBbbvnOWE3OzPfDabcAThTSZdTTayPjOSF1MF94qzjmqtU0ZotrcCISkLZeQhx2esAqJqEVueTLyQJFValDZ0iyMR0EPtgYzR7kILWjEW76vD2JuEGRaNrZ6qwIXHhyt2hdUVg5ZlZ0LtK1aqozC56Ml4lmBSUjkodHXNBa4DGIEzmqDwyNTHgpGr2xqTIGBDKNrTKozGP5aWQqFIg7YBsILYTmwmUW0vSEGca1GnEi5sQhFztfeC6a3SoSI9PC6vDWBNR/CdXb70JupqH5y+HhuCXqrLq0ZmigJogYlDTeXUBEAHUrWNJIGhWCACABbxAVQC6tawoUFaUQRYHoVKBArSiplFExaTQ2qGNoNQHAMSttVpZcQtR5SKFUWjZMoo8pF0UKaKaQARBGK8vHE0Fludw0A2wSwoF60axtL59wIrdxYU2b1mZsF81mZlmdWtZgDHxSOcomLSbQ2VWIDR0FYi4CgaFGJRMAYBsK0ZUkJdUJTBcAxOKOKxAxCp1KjatMVptxGhaoosimVNVk2gAow/CdXb5Qm6GD/zYwMR2ph2ph2ph2ph2ph2ph2phIW3WWrJWg+HhuD926u30hPd7KAZ+pz1Oepz1Oepz1Oepz1Oepz1Oepz1Oepz1OepyiJPF4J6nPU56nPU56nPU56nPU56nPU56nPU56nPU56nPU56nPU56nPU56nPU56nPU56nPU56nPU56nPU56nPU56nPU56nPU56nPU56nPU56nPU56nPU56nPU56nPU56nPU56nPU56nPU56nPU56nPU40P8A4n0hU+422udIoYPy4ihg/LiKGD8uIoYPy4ihg/LiKGD8uIoYPy4ihg/LiKGD8uIoYPy4ihg/LiKGD8uIoYPy4ihg/LiKGD8uI4LjJdcRQwflxFDB+XEUMH5cRQwflxFDB+XEUMH5cRQwflxFDB+XEUMH5cRQwflxFDB+XEUMH5cRQwflxFDB+XEUMH5cRQwflxFDB+XEUMH5cRQwflxFDB+XEUMH5cRQwflxFDB+XEUMH5cRQwflxFDB+XEUMH5cRQwflxFDB+XEUMH5cRQwflxFDB+XEUMH5cRQwflxFDB+XEUMH5cRQwflxFDB+XEUMH5cRQwflxFDB+XEUMH5cRQwflxFDB+XEUMH5cRQwflxFDB+XEUMH5cRQwflxFDB+XEUMH5cRQwflxFDB+XEUMH5cRQwflxFDB+XEUMH5cRQwflxF0Bjwx+FCb+G4Pyb/ROrt9mE3N3Jbw2VwHVhFuQ0MvF1OoI5iRKoJduXu+fkOMQiqcNJLZW/0BLzBCCrrIA5lwppju2weGv22BCECf8AxJxo/S/gzmRIZaq4AbzCgUI8ia/RtHoGUsaqxr9KwRjgalXQJbBqptFUmuRIQQAJQ6WGqWzWkScw4IWquADeBJoUdEHUOz+W6u3yhNzxqihalOhFe+6Wuo1/xcpWEtZXSz+NDMuusIV5a1ern6FS7axP4DoRF6FWVV193UOhEFSW/wBtwHx89wRO1eeQZBTH8D1UZxqokG/L2ui89Cplhebq1V8qULZYomkDWLb4q0BgbXbyElniM3lAgQ8yb4vLOQvZYojfxyulRLdFR9+9mv63tgpHM0tuY8ygjfBmhgtAXNzJLqUvLugMe3O5YhA6XIlcSiohTsuyhZbE5bRgoLBA055BlpenkQ0VLmHcYJQF8OQtaysbzAUGAEWNERgW14tC1+qRZ/NpUllKikEWU0sNSApgpVij7BetghzcAhUtgZxRuy0OtdtMLNAYZjd0biuGIhiKJgMDfjKrV0CYSdCt2J5GKa+4Ceu41otSOvpWMi2ONdFDt70Jml6QgJSoEb3kLdikqWxyylLTVET8p1dvlCblyiPJ2F0uSRne0Qf8L6pPjcssKDquIPUlqOjm/eFx0oxvuSOVX4eb4IHwb1OA8yjBjzPaTWCQVwCXZU8C8Skq0BIbvVHVPURSgpIvyxAKKUywGXYaMW72xEAKHEokm6VWL1zK9wJR0FDBagIQLlLyhgSqYz1CNxeBtB9t6OYCUhQoBGnLwOzJLEEmfNRqlTiqjcATLpHJfxsEAcsr8aXsCoLTfohpQReySnu4uxar0AHAR8WFkGhoogYpC5xhPJx6lUrB4QhUYhN9oEXyaoQS5YTRKDCG7i+0FZGzCjM6u8bDQuGKSsT0QmuWgErEGyVAqEbEcwDS7eOG7W2bt1UIV9hF6RaUGkaY1uLqWN2wGwwB2O/IaK3R5ZrJl0mVUoVg3toihW7tFrRf4AGLVDFdsAjxLaF5TCi27q1/KdXb5wm769bAUdk4epmLtSAZ9P8A69CY03lX8euhVhnI23+dT2GXiWWj/K//AJJuQ9gzIeQXRUMACvj4bg/durt9mE3V+CkLE6kS3drD0sNPseG4P3bq7fSFrXUPNeUyKyKyKyKyKyKyKyKyKyKyKyKyKyKyKLDqFR0FpjIrIrIrIrIrIrIrIrIrIrIrIrIrIrIrIrIrIrIrIrIrIrIrIrIrIrIrIrIrIrIrIrIrIrIrIrIrIrIrIrIrIrIrIrIrIrIrIrIrIrIrIrIrIrIrIrIrIunOfhDCb+G4P3bq7fhQm/nuEfsL+ydXb7sJuPmrpC7Fm3yqWa3OhVZWqBUA8iEI0cqLN2AzOYGCMAurIIEgiWSuggDtNUMxff2gRcyNeEpHMthYaQOyhGAvANGboBg0VTDXZ+xNmRIZcsZ1GttUk1a2JBNEE6TN1Gquqwg/BKuOpXgpmhwtbmrUYiaTNhoFQWqshnqgNWChdN2KI2TWwz+aU3w5ShDSugOWAjBkFBNQCDByLvIcoQPxlUyj4KIMOqmCFqhuC0serVwtTUKd12JWSIVtMQLYLTDN3r8aidEf0rq7fKE3wb04vtwX5/Pnz58+PUTtrKB4G0eWT/itvWi/h5zhLOChoAFegZrHzTKmUsk9QOkZelKhDLckdo6RZqQW20wlfCjIEDDSs+NLoAUEXUWjVNZ6cL0aqIJqkcqIy/SpUJZVmZzL/d74GLAhD2ssLDQLRAMWd+5KuK9QWgQqK/TkO2daaVK1WSECVFtWWDTremY40GEgM6cO0ewgkawEVpIFuawmK15esdmrNYt5FYMG2SLo0VgLfDB2NvpM02sWdxIe0hqMZelsdP0jq7fiQm+1fZfw4CxNQm5BvRSBcAYD6X8b/UHV2/ChN/DcH7t1dvpCdKVytp58J/J/J/J/J/J/J/J/J/J/J/J/J/J/J/CYYBMf/SE/k/k/k/k/k/k/k/k/k/k/k/k/k/k/k/k/k/k/k/k/k/k/k/k/k/k/k/k/k/k/k/k/k/k/k/k/k/k/k/k/k/k/k/k/k/k/k/k/k/k/k/k/k/k/k/k/k/hC/hLhN/DcH7t0e3yhN2nQGTQIP2IoooooohF9yNxQePh4bg/durt96E3WVD85fDz3BCGjfJDSnOVFg6gULoZbtj0OW0ia7hiq3XFVcF8OSbf7mIILGx3gqDDUvJMJQa2zHvkDW+dhap3plLHHk4hBrHRFXd4l4RHRnXtBCjWqx3m9uZXvxE0AuguWItU1qr34i4w2HaXrV6g9KjTTpLMGmtN1EeByMd4m2ElLLi8W4QNAOFcjuLGasSVSeigsNGbMZggrNSDENRtWWIhtyHNCu0YimA8hsh9iOjZMlVu6q9+IAAXQXLEBVo3WXEApqXpMClAWt6EtoOF3eJYinUxEQwWiuJqg7LQvtExAtBcv4rq7fehN1lQ/OXw8dxDhTrX0guVSFduiqB3LAGNHQ246JCi7oKkFWxcls0UNagor4rIGZiMklNKM1oI9qIMFRbFS7dwuCpKfDd+4OuwWpWF2YKNHiYkXB2lcautaFwQvGKjN9VXZcAgWC4IqVvINExz6aDacmq3sDUqcNMRNFAKQR7O9ImURLBAi8YYs7Q2zDBQrAM2moi1oVU3DkQwQBvtQaxdgFmJzdBtWDWpFmnduCWFbUgai5A/4XAoHOAtYgHdwVhhqb5ppfWGiSD6E6bJVHRRisonDrG2FbhNo+0n2iwTYFAYSF5TbU1dOhpSKAYU6jZVrwEtSNUVHXnBqgKkr+FUu1WBd8cl0WxqtmwQN4ATPHhMT4tuPaAXoVMEGHlZWoC6oqsIO8U2cT1z2QuvEmeUXAIgRVE2IHFdyJsgmZGgaljpf4jq7fKE3QlZq18Aejoyva5ceo2dvHRl5TXDjdQFO48RMJtqRqtc/DyfBKlSpUqVKlSpUqVKlSpUqVKlSpUqVKlSpUr6HDvGkmioumKrXAIAUXQNOCVKlSpUr8V1dvlCbhoALItmOZreZkHa0I1x7Y2Lt2ef4Aze6zdXlpd/Y8NwfnH5rq7fhQm/huD926u30haMrnWmWVjMTMTMTMTMTMTMTMTMTMTMTMTMTMTxcDkEEhXlYZiZiZiZiZiZiZiZiZiZiZiZiZiZiZiZiZiZiZiZiZiZiZiZiZiZiZiZiZiZiZiZiZiZiZiZiZiZiZiZiZiZiZiZiZiZiZiZiZiZiZiZiZiZiZiZiZiZioNaHzRZuAjVNtKCgbENxoowiayg/lIffv8MN/Y8Nwfu3V2+cJuBsDrz9VPVTUt8Q75MMYaLaPqu7BmyiYhFS+YBYny8nwQYtsSXmx9LqRBZWVuzUFahrapppunj9u6u33ITdXZS4r0qAOg4Pl4bglq5LkCzdU5grFIKge1USwQ0QHRGuiVPfBRqGx1TJaB0K1pbhzkWmspJIWZVFZWgHunbWVauqNwNriYA52OKqthlxETlAraI0BlPa4uBYKUyFhjUMF3FYFjI0kESi6tbRrEtAqxRVVYCNELYI2PQVAO4UxVE9LgVCKBKdXe0tUg2hkpVP1bq7fOE3fq6oFqBzGH9TFDd2Hsd4MS3LsrVXdWVu/Ly3BBYGO0JLXEtCDdBXgKKtEsY5cM9IunEUFqyhbPc85h2CRvM/VURDjQGCXRRnabLBZbvbA0Mj3rvLiwi5BcKa6IxmxlKFu56VEi6NJNUw9Ma0Yj1A7jW0w25RYxFHJIbk39AFmiOKXwgiBLigplI4GPsOV2hQGAhu5vKvaHMRQvrikUBKy/1Z1dvnCbr59SkCm9mGLMaBOwqf+/7AFPQAugYPn4bg+5X691dvwoTfw3B+7dHt9IWGU24Ge/wAAAAAAAAAAAAAAAABAS9JrLKxFDkApahFsbzxf7QyPqDAqt1oBNVS8pJU4eECRx7f6fUBwz+D/wBnl/0ng/0h5T+54P8ASBUQI68A11XaC1wgTFg04anX35bzx/6Tx/6R8L/cJTkHv/pDwn9/UIw5w7f6RzL9/wD9JncvPrG/SHwNVVwQ1TWJE0I3pMYaPDedZNm2vDf6BFnd3/0j1/hzDkefX6IqgMVhaCxyvENjwd47Pi7wCxMXbYhsut4Hp4O/14BAdGfTcFXW+XMeT59YsZXh1ng/0+oQJnvNIrqkztPw6zn8Hf6dOp8esX1hmmt4dfnCbnjAWq4DmKpXIleu4HUpFOJQN6Daiups0N61vAkYE1bNs1bCagKJ8/KcJZuvhlLIIspMHBFcKqJB4rG8CuIqYnAtLWq8UjabSeDrlTgChlKeYtqxELagpZkfFRabpVl8ybtZ8OHMYnD0sHdRi9CKvTKmptR0jmzGJJtC3OLVssHiShur1liU8wEupcLkjbE9xA3BKVi0Ud60CAFLi9q19ms2KhGtsdqBXZxJQxhvNWqA01tQMJaXoBU55dajlgWPMwa7kMyGFATpOwWbQpSXeWTtwmWo8Q8mGiJELUq1hgdUy5BvkNVllupPkYumVWeiYWagXRSDD1ZUGsBG0LoDmlTjtFlOquHgnqqb2CGiUTVokLpcEc5+hFwEGUxrIKDaqk3u2vYfN20gZg1oymhARQ4RHkapGQksKS5XqhLZAGUOrz4G1gjVgJt2oWiu5ZgTZmk0K4GWWN1dCaky7akt2S9Idap4tpK1P2WawrlSAGeinZFRLiGA866UpxSzLJSiIZec7YYza/xUqWkwTjQ8FtC2FyyQXte3kNs6SyF4aEXHVtRRdsCoLCETiInnqtliUlae2tEOgycSeKlfAbNoEuViqAAHQJoPg86yqo8WLGaV8JrwQpE8mdkf9MXh+cJuVzTzhQlvDT0oPBgFAaAOPq8peJZ1+fYLxjZLxdIR/h+XnuCLYixuNRaUYMUBbAKoaCtgi6kuI0dgV6AkI63/AKi7iUUCXa0bYADAVtCoiQFdYQLLd7YwbUxSukiXkcIxS52BTa31bKRAiTtldMazvX4E3K7ABgIYhVJFFg060kcYFarSM7pKvMu9hwDcc9oRUrFG7KAKuiQCaPqS/kCJqi4wz6WkJQspuGIUfIJFqgRai0QnGG9gCBGCmB1sHVRRS0hCydytQK25QpMJO3gACaopB9OLAHSBW2lrOUAtaKtl0GPbnNgV2VDLAXg5P+gkEBjZkeMwNzhQY2wb/qo0YyuQLa8ZnWmqS3DhaW7iDiEplAZnfjDVQprIwgWW72xALpgFL0lkihj3bhRaLqIAapLrunzpaMAQPNBGtI6dIM1tvp7b02xTLJtAdmtqLJHHceJG4+wFMyUrnehbIgIwcKOJxGAuWsVoAww0l5WKyqeFsmMlsoFBIY1wE7XkErEIKjsCuTZXq5YGFWtNXrrIKARfhChvYqggjVjDg5jugttwasz1Z+o6UUNsJKXjw1NjUVosAgKIB0omBRVvSXSDKS2eiGN9BYhK43UlrholozL39OTJZ1EZeeOMUZmFSgBFgpsAMLpVa2ET4P1qEBzdY3Cs21VSw4QE+ZCbtEL5uoB2FvxrE0F9qDOgg+XhuCIRkO0+q0WkNHoTqBGjErwrBnY2v4TiFmN2CTy5QiLYjmBk8jaGykqwYK/ToOBS6pn6G3VdmmUeZYhFITC82a8quiHLBTlgiKrWHMlXAYK7J/DhiGiCE4XzQdBYZK3PrRatF7tEvMV/WChResQ/KBTrKBgD0NScEWggb0zHMXuC0sWTNJ8rmKNl2uGWvbk64Y97swkFcNNBhJKS3uRS1gtpd94WXsuiFtAjVSFDKMpYrGjqWNaaRjMQR4LDoLQ6uCHFdL3szUTIQZT40qrEnRJQhGcmVcq1hclLbUNdgtiNuUfXcNUGpIjEUVnAsMFLS0L2qSCob2Dqhq9jFsuqFgYLJdVjRJBFFIykIHmxjZXfoCsWuMiSYB4U4SsstzoCpmwGAl4aSBhQ2RrUXIkuV2tBDtzRBU7bfJCUrEI1/Gu6006FwNqHJh2gK7FmXp25KHV2SqLbjTN+hdA3XwSrJVCcGkdkbEsSN/kVgFqDLhOIF5WjpqVgu4CRj7nt0Gx2QRIKCESUxexC11YO5MBhSu3YNnJkleUl6CHfIA0y0X3VpY9X1uxag4Yp6I2SrWFjSYOa01kwAtici9wweqCcZUMT3fQYOoRm8EWb0KKKWhThmCuGKi3DQC6vo6PzhN3wT6cOTsN+BX3VaAWTgRM4ZDCGD1EHyFxgdmxY5exQmZHv9NGbG7p0EDVSIkMBpQYzR+fe1Zu5jGFD3QdVrRm0RBUg4KUGjsqAIiMelIwg5RyajMsDqADqKrSQgiXYCh3VeBQCFSCaRTV0NQfT7YwipOMYjTNoCKaxGCWziHKRVYURWW1DtOjQSQSzpyDRPtBRbatZvgLpm9yIYVlborFxVEK4sM4u4yOSSgOlFauSzWdhnOkCiC/2RMaroNUWavG89PbVQMOcbJid3JlZVNXdRFqIhgoHxQDo2Uc6V1SdK4OY8KFdNtLdFIq+K0fUlvK4gkRq/TGYHrWBYxd2iH0BoGW3Fb0SOp0hZ/wOvfMSGkXBrbscIavWAWRta+sndAqrQYLRQ6XlYsGTZB9Qa09LIEqKPjXVeOgi3aoNKmmtEGgWNSUdrETmbX/BumtYNSDEHJWFVmmomd8FGR06jLan8OtBgaBCvBdgKq1UpR+tJQncVRaW4eHDl18MIaD9aFYyW2Ii4t7orYsRuiH/AIQZWCRUItmtFjMFIqvSRrEnTb9K25M7H1ItLdFICjreJ8lc5aEihmfUDBDpSSqdKA6FF11WEjbN6jqaKyoAnILQbw1INI/R1dvnCboPX1rQtOCwK4IDrvpMEUZRqP0YaFVgskX/AMCzAgkAAUAaHy8FwQmPhiGUkzQUfC/jf2L+ykiuaTJ2jGB/at5YFSvpUQ2Vo1yyWzH12+3VMPg6u32ITcHUdjn4KBNgtReiOCoHVOsXlNiQ8XocmLKFb3m4AwfPw3B+7dXb6QqKwqrFwcimT8BOnTp06dPbTp06dOn7vyrlYor93Tp06dOnTp06dOnTp06dOnTp06dOnTp06dOnTp06dOnTp06dOnTp06dOnTp06dOnTp06elF7SASyIxP/xAA/EQABAQQFCAcFBwUBAAAAAAABAAIQEfAhMTJBQhIiUWGSocHRAyBAUoKxwjBicJHSQ1BgcXKi4hNTgYPT4//aAAgBAgEBPwD8L1dQ+xHamqHNUJmmfyRsJqjqM9QdpaTVc6Xs5s/kjYXSZ8E0ItIcfSmkc4IjKCNudPbAX1oKpXvFAQoZQPw3xbTr9lcF/JVblO5DOyP1oUlYXF5oynVZTzU2j2M/UmhnT3irtngmvttSN3i4o3eLdFGfmUxQ2yPf5IZrRnQsLm7k1d/s3NJqwm7DU6UFay1Tu6MeFMz+1GptHt2L7nu+HFR2k0IGdJHBTuHNwpZJmoHio5mX7jLW5QgJ97ksLiaB+j05SaoaA/VuWTD+rr9MUYDpG/cXcVpNfUj2es7SjlGdJPFTuHJwoZM3AcFDMyPcZZ3LKirnEUeBWjtb0WqprjzRpLZ767isr+SPwzi4OD+Lr/uAuFh7FLfQjSsLsHbWrk0aZ7xPFT5K9CzBWXC3GbnT5LAmq+21h1yFarcOpWPhxi2n4lxRtOH0qF/urvODh6OAefp83TuQs9kP1Jq1/j1FH/nwWJf2daNpM251LGfCjZ8HpQttJmd6FidSM7kLPg4BYp7wTVlNWtnzKnyTNudCFn7ja+LZMDtIiBnSRwU+XNFClmdXNwazMtQ9PFHt5ETtImJnSTxU+XJFCgTq5OAzMhZXp480fxbeqhOh87+pc6d7zPzV6qRcV3fCr0X3uB9q1QAmhAzpIU+SaTQg1Ca3tzsq+DsEZqBWBxsxmoIimdfJMZzCFLioWfCmakU3QsajROpY0LJM2QUxSmKZ/P2ZqRpM6Vds7gBwc0YlGtGvqGqdARaQEEap0DkoxnWeaAghQEXF07oOjSma0LSE/IDghVBDN9ma0KROgIAZW1uZI4OwoUiKFnqM0mdKDKFKFcJrHNWTOgIiCNBgg4Zzp3wdk0TN6uRoKE/IHihWhT7PEh9jq+lCd6xr+P7UKp7oWBCd6N04g5nNTBn5pnNX/nugmq50JvOa6WZrTVqdKBzp7zKCOcxOpYITc7GhQwZ0IWF0mc0sEJsgcEJ2Ubfs8SHk+HFCtakX1urdO9a3AIoUUdQoIPP4R//EAD4RAAEBBgIFCAgDCQAAAAAAAAABAhARIUHwMkIxUVJhsRIgIkCCkqHRAzBQYHBxweGDotITI0NTcrLC4uP/2gAIAQMBAT8A91r8OdpRyuURROt34uYm9mbcBmaOXBFy473iMidbZ6LkkNTczjGejHs+CGSF1FwwFM4i8nkiYOt6SAppdU0+PF1RXLPkifDeEWe7xQoII9ZC9FGhqSNP+wjt2tyTcnETKbPU2a9nih5/4jNPxPCImIvgM41/D8YGJb2UG5o1esamy06l7SCV7P0Ew3smcZx+h3/Y/wCnhETouT+DvEyGx16nsevw4ZSKL2eKFL1RGDK2KvSMwzO9xmaQYESd6xmZnZvV5i4HaGRnF3fp1jlclO7xQpeqBoKNCpMzCSvcZmnI1O9ZhIYb1eQrsSFe78NNDl5u17AxXvck3Nye1gbdfEz9dZ6N7y/yjEhoaF6RfEyQdfHzKjOHrkYv0uSXNp8Ocvd4oUP9nfQRZOXmK10oFSt63V+b6XrF6ozpXs8UKXsjE4dr6jR/O3CM9FL1jV+IozjvaMo1K/kKz+9veUveVvWZL3jM/Seh3jOFbyupesXH7DZWYz7Gp8NEZii9nihGKXqiMnJk0LjFkKk+8J7ARqH5eKEIJeqAiHKk0KLMVqadoT3ujBO7zNl20VI38uYogmhnnLzF9eyzylVP6f7nMOyMLdXbQzNm9oyXR+cUTEMTRkak6+HmZb2XK5kYvu8oW/EyDQzNuA3K/kZ4eq5Uz9MCEFi5MELr5iSQoXw8nxm+sRno3uFm5dJS9UHLO71Oy90STsookliL6uEj9cBpqT1kpWBfDzeyzFX0iab3iTcugy3rck3U73gK7KKgugX1a6Chnvc9RMZfAviZHKX4GT0qa/uRle49H0f2QmFzWgqVi7KLNu95mNszmUyerXSV5ii81eaiO0qUKOyiFDadT3S//9k=;" vertex="1" parent="1">
          <mxGeometry x="20" y="20" width="331.39" height="226" as="geometry" />
        </mxCell>
        <mxCell id="KSiQGRY_vgNifgsWzwuc-102" value="" style="group;verticalAlign=top;" vertex="1" connectable="0" parent="1">
          <mxGeometry x="420" y="80" width="780" height="990" as="geometry" />
        </mxCell>
        <mxCell id="KSiQGRY_vgNifgsWzwuc-56" value="" style="rounded=1;whiteSpace=wrap;html=1;" vertex="1" parent="KSiQGRY_vgNifgsWzwuc-102">
          <mxGeometry x="345" width="120" height="60" as="geometry" />
        </mxCell>
        <mxCell id="KSiQGRY_vgNifgsWzwuc-57" value="Início" style="text;html=1;align=center;verticalAlign=middle;whiteSpace=wrap;rounded=0;fontSize=18;" vertex="1" parent="KSiQGRY_vgNifgsWzwuc-102">
          <mxGeometry x="375" y="15" width="60" height="30" as="geometry" />
        </mxCell>
        <mxCell id="KSiQGRY_vgNifgsWzwuc-63" style="edgeStyle=orthogonalEdgeStyle;rounded=0;orthogonalLoop=1;jettySize=auto;html=1;entryX=0.5;entryY=0;entryDx=0;entryDy=0;" edge="1" parent="KSiQGRY_vgNifgsWzwuc-102" source="KSiQGRY_vgNifgsWzwuc-58" target="KSiQGRY_vgNifgsWzwuc-61">
          <mxGeometry relative="1" as="geometry" />
        </mxCell>
        <mxCell id="KSiQGRY_vgNifgsWzwuc-58" value="" style="html=1;strokeWidth=2;shape=manualInput;whiteSpace=wrap;rounded=1;size=26;arcSize=11;" vertex="1" parent="KSiQGRY_vgNifgsWzwuc-102">
          <mxGeometry x="335" y="140" width="140" height="60" as="geometry" />
        </mxCell>
        <mxCell id="KSiQGRY_vgNifgsWzwuc-59" style="edgeStyle=orthogonalEdgeStyle;rounded=0;orthogonalLoop=1;jettySize=auto;html=1;entryX=0.506;entryY=0.233;entryDx=0;entryDy=0;entryPerimeter=0;" edge="1" parent="KSiQGRY_vgNifgsWzwuc-102" source="KSiQGRY_vgNifgsWzwuc-56" target="KSiQGRY_vgNifgsWzwuc-58">
          <mxGeometry relative="1" as="geometry" />
        </mxCell>
        <mxCell id="KSiQGRY_vgNifgsWzwuc-61" value="" style="rounded=0;whiteSpace=wrap;html=1;" vertex="1" parent="KSiQGRY_vgNifgsWzwuc-102">
          <mxGeometry x="330" y="270" width="150" height="40" as="geometry" />
        </mxCell>
        <mxCell id="KSiQGRY_vgNifgsWzwuc-62" value="M &amp;lt;- (N1, N2 e N3) / 3" style="text;html=1;align=center;verticalAlign=middle;whiteSpace=wrap;rounded=0;fontSize=11;" vertex="1" parent="KSiQGRY_vgNifgsWzwuc-102">
          <mxGeometry x="345" y="272.5" width="120" height="35" as="geometry" />
        </mxCell>
        <mxCell id="KSiQGRY_vgNifgsWzwuc-66" value="Receber notas dos alunos (N1, N2 e N3)" style="text;html=1;align=center;verticalAlign=middle;whiteSpace=wrap;rounded=0;fontSize=11;" vertex="1" parent="KSiQGRY_vgNifgsWzwuc-102">
          <mxGeometry x="345" y="160" width="120" height="35" as="geometry" />
        </mxCell>
        <mxCell id="KSiQGRY_vgNifgsWzwuc-86" style="edgeStyle=orthogonalEdgeStyle;rounded=0;orthogonalLoop=1;jettySize=auto;html=1;entryX=0.5;entryY=0;entryDx=0;entryDy=0;" edge="1" parent="KSiQGRY_vgNifgsWzwuc-102" source="KSiQGRY_vgNifgsWzwuc-67" target="KSiQGRY_vgNifgsWzwuc-78">
          <mxGeometry relative="1" as="geometry" />
        </mxCell>
        <mxCell id="KSiQGRY_vgNifgsWzwuc-67" value="" style="strokeWidth=2;html=1;shape=mxgraph.flowchart.decision;whiteSpace=wrap;" vertex="1" parent="KSiQGRY_vgNifgsWzwuc-102">
          <mxGeometry x="25" y="380" width="100" height="100" as="geometry" />
        </mxCell>
        <mxCell id="KSiQGRY_vgNifgsWzwuc-87" style="edgeStyle=orthogonalEdgeStyle;rounded=0;orthogonalLoop=1;jettySize=auto;html=1;entryX=0.5;entryY=0;entryDx=0;entryDy=0;" edge="1" parent="KSiQGRY_vgNifgsWzwuc-102" source="KSiQGRY_vgNifgsWzwuc-68" target="KSiQGRY_vgNifgsWzwuc-80">
          <mxGeometry relative="1" as="geometry" />
        </mxCell>
        <mxCell id="KSiQGRY_vgNifgsWzwuc-68" value="" style="strokeWidth=2;html=1;shape=mxgraph.flowchart.decision;whiteSpace=wrap;" vertex="1" parent="KSiQGRY_vgNifgsWzwuc-102">
          <mxGeometry x="355" y="380" width="100" height="100" as="geometry" />
        </mxCell>
        <mxCell id="KSiQGRY_vgNifgsWzwuc-88" style="edgeStyle=orthogonalEdgeStyle;rounded=0;orthogonalLoop=1;jettySize=auto;html=1;entryX=0.5;entryY=0;entryDx=0;entryDy=0;" edge="1" parent="KSiQGRY_vgNifgsWzwuc-102" source="KSiQGRY_vgNifgsWzwuc-69" target="KSiQGRY_vgNifgsWzwuc-83">
          <mxGeometry relative="1" as="geometry" />
        </mxCell>
        <mxCell id="KSiQGRY_vgNifgsWzwuc-69" value="" style="strokeWidth=2;html=1;shape=mxgraph.flowchart.decision;whiteSpace=wrap;" vertex="1" parent="KSiQGRY_vgNifgsWzwuc-102">
          <mxGeometry x="655" y="380" width="100" height="100" as="geometry" />
        </mxCell>
        <mxCell id="KSiQGRY_vgNifgsWzwuc-70" style="edgeStyle=orthogonalEdgeStyle;rounded=0;orthogonalLoop=1;jettySize=auto;html=1;entryX=0.5;entryY=0;entryDx=0;entryDy=0;entryPerimeter=0;" edge="1" parent="KSiQGRY_vgNifgsWzwuc-102" source="KSiQGRY_vgNifgsWzwuc-61" target="KSiQGRY_vgNifgsWzwuc-67">
          <mxGeometry relative="1" as="geometry" />
        </mxCell>
        <mxCell id="KSiQGRY_vgNifgsWzwuc-71" style="edgeStyle=orthogonalEdgeStyle;rounded=0;orthogonalLoop=1;jettySize=auto;html=1;entryX=0.5;entryY=0;entryDx=0;entryDy=0;entryPerimeter=0;" edge="1" parent="KSiQGRY_vgNifgsWzwuc-102" source="KSiQGRY_vgNifgsWzwuc-61" target="KSiQGRY_vgNifgsWzwuc-68">
          <mxGeometry relative="1" as="geometry" />
        </mxCell>
        <mxCell id="KSiQGRY_vgNifgsWzwuc-72" style="edgeStyle=orthogonalEdgeStyle;rounded=0;orthogonalLoop=1;jettySize=auto;html=1;entryX=0.5;entryY=0;entryDx=0;entryDy=0;entryPerimeter=0;" edge="1" parent="KSiQGRY_vgNifgsWzwuc-102" source="KSiQGRY_vgNifgsWzwuc-61" target="KSiQGRY_vgNifgsWzwuc-69">
          <mxGeometry relative="1" as="geometry" />
        </mxCell>
        <mxCell id="KSiQGRY_vgNifgsWzwuc-74" value="M &amp;gt; = 5 e &amp;lt; = 6.9" style="text;html=1;align=center;verticalAlign=middle;whiteSpace=wrap;rounded=0;fontSize=10;" vertex="1" parent="KSiQGRY_vgNifgsWzwuc-102">
          <mxGeometry x="355" y="410" width="100" height="37.5" as="geometry" />
        </mxCell>
        <mxCell id="KSiQGRY_vgNifgsWzwuc-76" value="M &amp;gt; = 0 e &amp;lt; = 4.9" style="text;html=1;align=center;verticalAlign=middle;whiteSpace=wrap;rounded=0;fontSize=10;" vertex="1" parent="KSiQGRY_vgNifgsWzwuc-102">
          <mxGeometry x="25" y="410" width="100" height="37.5" as="geometry" />
        </mxCell>
        <mxCell id="KSiQGRY_vgNifgsWzwuc-77" value="M &amp;gt; = 7 e &amp;lt; = 10" style="text;html=1;align=center;verticalAlign=middle;whiteSpace=wrap;rounded=0;fontSize=10;" vertex="1" parent="KSiQGRY_vgNifgsWzwuc-102">
          <mxGeometry x="655" y="410" width="100" height="37.5" as="geometry" />
        </mxCell>
        <mxCell id="KSiQGRY_vgNifgsWzwuc-78" value="" style="rounded=0;whiteSpace=wrap;html=1;" vertex="1" parent="KSiQGRY_vgNifgsWzwuc-102">
          <mxGeometry y="530" width="150" height="40" as="geometry" />
        </mxCell>
        <mxCell id="KSiQGRY_vgNifgsWzwuc-79" value="Escreva: Aluno de recuperação" style="text;html=1;align=center;verticalAlign=middle;whiteSpace=wrap;rounded=0;fontSize=11;" vertex="1" parent="KSiQGRY_vgNifgsWzwuc-102">
          <mxGeometry x="15" y="532.5" width="120" height="35" as="geometry" />
        </mxCell>
        <mxCell id="KSiQGRY_vgNifgsWzwuc-80" value="" style="rounded=0;whiteSpace=wrap;html=1;" vertex="1" parent="KSiQGRY_vgNifgsWzwuc-102">
          <mxGeometry x="330" y="530" width="150" height="40" as="geometry" />
        </mxCell>
        <mxCell id="KSiQGRY_vgNifgsWzwuc-81" value="Escreva: Aluno em prova final" style="text;html=1;align=center;verticalAlign=middle;whiteSpace=wrap;rounded=0;fontSize=11;" vertex="1" parent="KSiQGRY_vgNifgsWzwuc-102">
          <mxGeometry x="345" y="532.5" width="120" height="35" as="geometry" />
        </mxCell>
        <mxCell id="KSiQGRY_vgNifgsWzwuc-83" value="" style="rounded=0;whiteSpace=wrap;html=1;" vertex="1" parent="KSiQGRY_vgNifgsWzwuc-102">
          <mxGeometry x="630" y="530" width="150" height="40" as="geometry" />
        </mxCell>
        <mxCell id="KSiQGRY_vgNifgsWzwuc-84" value="Escreva: Aluno passado por média" style="text;html=1;align=center;verticalAlign=middle;whiteSpace=wrap;rounded=0;fontSize=11;" vertex="1" parent="KSiQGRY_vgNifgsWzwuc-102">
          <mxGeometry x="645" y="532.5" width="120" height="35" as="geometry" />
        </mxCell>
        <mxCell id="KSiQGRY_vgNifgsWzwuc-99" style="edgeStyle=orthogonalEdgeStyle;rounded=0;orthogonalLoop=1;jettySize=auto;html=1;entryX=0.5;entryY=0;entryDx=0;entryDy=0;" edge="1" parent="KSiQGRY_vgNifgsWzwuc-102" source="KSiQGRY_vgNifgsWzwuc-89" target="KSiQGRY_vgNifgsWzwuc-93">
          <mxGeometry relative="1" as="geometry" />
        </mxCell>
        <mxCell id="KSiQGRY_vgNifgsWzwuc-89" value="" style="verticalLabelPosition=bottom;verticalAlign=top;html=1;shape=mxgraph.flowchart.on-page_reference;" vertex="1" parent="KSiQGRY_vgNifgsWzwuc-102">
          <mxGeometry x="375" y="660" width="60" height="60" as="geometry" />
        </mxCell>
        <mxCell id="KSiQGRY_vgNifgsWzwuc-90" style="edgeStyle=orthogonalEdgeStyle;rounded=0;orthogonalLoop=1;jettySize=auto;html=1;entryX=0.5;entryY=0;entryDx=0;entryDy=0;entryPerimeter=0;" edge="1" parent="KSiQGRY_vgNifgsWzwuc-102" source="KSiQGRY_vgNifgsWzwuc-80" target="KSiQGRY_vgNifgsWzwuc-89">
          <mxGeometry relative="1" as="geometry" />
        </mxCell>
        <mxCell id="KSiQGRY_vgNifgsWzwuc-91" style="edgeStyle=orthogonalEdgeStyle;rounded=0;orthogonalLoop=1;jettySize=auto;html=1;entryX=0;entryY=0.5;entryDx=0;entryDy=0;entryPerimeter=0;" edge="1" parent="KSiQGRY_vgNifgsWzwuc-102" source="KSiQGRY_vgNifgsWzwuc-78" target="KSiQGRY_vgNifgsWzwuc-89">
          <mxGeometry relative="1" as="geometry" />
        </mxCell>
        <mxCell id="KSiQGRY_vgNifgsWzwuc-92" style="edgeStyle=orthogonalEdgeStyle;rounded=0;orthogonalLoop=1;jettySize=auto;html=1;entryX=1;entryY=0.5;entryDx=0;entryDy=0;entryPerimeter=0;" edge="1" parent="KSiQGRY_vgNifgsWzwuc-102" source="KSiQGRY_vgNifgsWzwuc-83" target="KSiQGRY_vgNifgsWzwuc-89">
          <mxGeometry relative="1" as="geometry" />
        </mxCell>
        <mxCell id="KSiQGRY_vgNifgsWzwuc-101" style="edgeStyle=orthogonalEdgeStyle;rounded=0;orthogonalLoop=1;jettySize=auto;html=1;entryX=0.5;entryY=0;entryDx=0;entryDy=0;" edge="1" parent="KSiQGRY_vgNifgsWzwuc-102" source="KSiQGRY_vgNifgsWzwuc-93" target="KSiQGRY_vgNifgsWzwuc-97">
          <mxGeometry relative="1" as="geometry" />
        </mxCell>
        <mxCell id="KSiQGRY_vgNifgsWzwuc-93" value="" style="rounded=0;whiteSpace=wrap;html=1;" vertex="1" parent="KSiQGRY_vgNifgsWzwuc-102">
          <mxGeometry x="330" y="800" width="150" height="40" as="geometry" />
        </mxCell>
        <mxCell id="KSiQGRY_vgNifgsWzwuc-94" value="Escreva: Boa sorte!" style="text;html=1;align=center;verticalAlign=middle;whiteSpace=wrap;rounded=0;fontSize=11;" vertex="1" parent="KSiQGRY_vgNifgsWzwuc-102">
          <mxGeometry x="345" y="802.5" width="120" height="35" as="geometry" />
        </mxCell>
        <mxCell id="KSiQGRY_vgNifgsWzwuc-97" value="" style="rounded=1;whiteSpace=wrap;html=1;" vertex="1" parent="KSiQGRY_vgNifgsWzwuc-102">
          <mxGeometry x="345" y="930" width="120" height="60" as="geometry" />
        </mxCell>
        <mxCell id="KSiQGRY_vgNifgsWzwuc-98" value="Fim" style="text;html=1;align=center;verticalAlign=middle;whiteSpace=wrap;rounded=0;fontSize=18;" vertex="1" parent="KSiQGRY_vgNifgsWzwuc-102">
          <mxGeometry x="375" y="945" width="60" height="30" as="geometry" />
        </mxCell>
      </root>
    </mxGraphModel>
  </diagram>
</mxfile>
